<?xml version="1.0" standalone="no"?>
<!DOCTYPE svg PUBLIC "-//W3C//DTD SVG 20010904//EN"
 "http://www.w3.org/TR/2001/REC-SVG-20010904/DTD/svg10.dtd">
<svg version="1.0" xmlns="http://www.w3.org/2000/svg"
 width="2391.000000pt" height="2391.000000pt" viewBox="0 0 2391.000000 2391.000000"
 preserveAspectRatio="xMidYMid meet">
<metadata>
Created by potrace 1.11, written by Peter Selinger 2001-2013
</metadata>
<g transform="translate(0.000000,2391.000000) scale(0.100000,-0.100000)"
fill="#000000" stroke="none">
<path d="M14409 22313 c-1 -7 2 -63 5 -106 0 -9 5 -18 10 -20 8 -2 10 35 7
111 -1 20 -20 33 -22 15z"/>
<path d="M8669 22283 c-15 -4 -16 -9 -4 -55 15 -54 35 -83 66 -91 45 -12 27
84 -24 130 -12 11 -29 18 -38 16z"/>
<path d="M16110 22259 c-33 -13 -60 -48 -60 -79 0 -37 12 -50 52 -56 29 -5 38
-2 52 17 18 27 21 66 6 103 -10 28 -13 29 -50 15z"/>
<path d="M3930 22170 c0 -19 306 -446 357 -498 7 -8 26 -30 41 -50 15 -21 29
-39 32 -42 3 -3 21 -25 40 -50 19 -25 37 -47 40 -50 3 -3 127 -156 275 -340
147 -184 293 -364 324 -399 119 -137 148 -179 170 -248 15 -47 37 -86 69 -125
26 -30 86 -107 135 -169 132 -172 122 -163 157 -150 30 10 30 9 26 -17 -2 -15
-5 -33 -5 -40 -1 -7 -12 -1 -27 15 l-26 28 17 -30 c10 -16 28 -41 40 -55 12
-14 107 -142 210 -285 104 -143 240 -331 304 -417 64 -86 126 -172 139 -190
12 -18 28 -40 35 -48 7 -8 19 -26 28 -40 47 -72 95 -96 146 -75 l30 13 0 -57
c-1 -77 31 -143 130 -267 45 -55 95 -123 112 -152 17 -29 84 -123 149 -210
130 -172 292 -398 292 -405 0 -7 -60 -27 -80 -27 -11 0 -29 23 -49 61 -39 75
-209 327 -278 414 -4 6 -35 46 -67 90 -33 44 -105 139 -161 210 -56 72 -161
211 -234 310 -72 99 -138 188 -145 198 -8 11 -25 39 -37 63 -26 48 -32 49
-117 12 -24 -10 -50 -18 -58 -18 -29 0 -19 -16 111 -176 49 -61 173 -209 275
-330 267 -316 353 -427 561 -724 128 -183 175 -260 259 -430 63 -126 194 -341
232 -381 32 -34 65 -86 72 -112 7 -28 291 -416 385 -526 61 -72 149 -177 246
-296 138 -169 204 -224 490 -411 82 -54 93 -60 78 -43 -18 19 -16 36 7 59 19
19 22 20 53 4 42 -22 84 -69 98 -111 13 -39 6 -53 -19 -35 -17 12 -101 52
-109 52 -7 0 57 -79 171 -213 60 -70 112 -127 115 -127 4 0 14 18 22 41 l15
41 40 -59 c23 -32 54 -82 70 -110 l29 -52 -48 -49 c-53 -53 -57 -75 -28 -137
60 -129 192 -145 285 -34 24 29 27 29 53 15 15 -8 46 -31 68 -51 64 -58 247
-204 594 -474 76 -60 201 -196 201 -219 0 -6 4 -12 8 -14 15 -6 79 -121 202
-363 125 -244 134 -262 128 -235 -2 10 6 16 27 18 26 2 34 -4 66 -50 19 -29
96 -141 170 -248 74 -107 142 -207 152 -222 28 -44 -4 -23 -42 28 -42 56 -231
250 -231 238 0 -5 7 -36 14 -69 8 -33 16 -73 19 -90 3 -16 9 -48 15 -70 22
-82 23 -104 5 -113 -10 -6 -47 -12 -83 -16 -123 -12 -163 -16 -170 -21 -10 -6
47 -222 68 -260 18 -30 54 -52 170 -101 l62 -27 1 -226 c0 -124 2 -248 4 -276
5 -92 17 -249 21 -268 4 -24 12 -100 19 -192 9 -117 16 -178 26 -223 6 -29 6
-57 -1 -84 -17 -62 -13 -156 9 -228 18 -57 78 -171 116 -218 7 -10 34 -43 59
-74 25 -31 191 -252 369 -490 339 -453 458 -610 468 -618 11 -10 205 -258 264
-338 33 -45 158 -213 278 -374 205 -275 433 -586 467 -638 18 -28 109 -140
114 -140 2 0 14 9 27 21 40 34 34 93 -17 160 -23 30 -47 72 -54 93 -27 85 -7
248 52 409 20 56 21 57 59 57 21 0 50 -5 65 -10 40 -15 121 -17 135 -3 22 22
11 66 -49 181 -35 68 -64 140 -70 172 -13 67 -8 157 12 225 73 250 78 278 74
366 -10 162 -79 275 -531 861 -53 68 -272 357 -407 538 -487 648 -590 794
-573 811 14 14 37 2 56 -31 10 -16 105 -145 212 -287 415 -551 703 -935 777
-1035 120 -164 228 -298 240 -298 7 0 9 27 4 85 l-7 85 54 0 c45 0 61 -5 92
-30 53 -42 76 -39 123 18 44 52 71 61 97 32 9 -10 39 -80 66 -157 28 -76 54
-147 59 -158 20 -44 16 -59 -15 -66 -67 -15 -79 -11 -105 34 -14 23 -29 52
-34 65 -5 15 -13 21 -23 18 -8 -3 -18 -6 -23 -6 -18 0 3 -109 36 -185 75 -170
96 -201 157 -224 43 -16 55 -14 52 12 -2 12 -6 49 -10 82 -4 33 -8 74 -10 92
-6 52 11 48 52 -14 40 -61 73 -80 115 -70 48 12 56 80 33 272 -2 17 -6 55 -9
86 l-6 57 65 42 c36 23 65 46 65 51 0 5 -10 14 -22 19 -84 35 -107 120 -56
206 20 33 23 52 22 126 0 49 -4 91 -7 95 -4 3 -40 7 -81 7 -69 1 -77 -1 -105
-28 -20 -19 -32 -43 -36 -70 -6 -36 -12 -75 -14 -84 -1 -2 -14 6 -30 17 -38
27 -67 75 -79 129 -11 47 -8 49 60 33 35 -8 36 -8 28 14 -5 12 -14 41 -20 64
-6 22 -14 41 -18 41 -5 0 -17 -18 -29 -40 -23 -46 -36 -40 -46 20 -3 19 -15
85 -26 145 -21 118 -30 201 -32 310 -1 53 2 70 15 77 41 23 69 55 63 73 -6 13
-14 16 -35 11 -121 -26 -192 -18 -344 41 -48 18 -99 34 -113 35 -24 2 -25 5
-19 43 10 68 44 154 134 335 217 438 260 529 277 590 16 56 18 99 15 315 -7
530 -7 663 0 740 5 68 3 91 -17 152 -36 116 -93 191 -214 283 -41 31 -78 91
-67 108 11 18 -14 34 -72 47 -104 25 -184 69 -264 148 -41 40 -87 90 -104 111
l-30 39 -34 -16 c-18 -9 -34 -17 -36 -17 -1 0 -1 35 -1 78 l2 77 -57 59 c-32
33 -61 56 -65 52 -5 -4 -15 -58 -23 -119 l-16 -112 -29 3 c-17 2 -52 11 -80
20 -49 17 -50 18 -74 85 -27 77 -34 76 -70 -1 l-23 -49 -51 18 c-29 11 -53 19
-54 19 -9 0 1 36 33 128 20 56 41 102 46 102 5 0 25 -16 45 -36 30 -30 41 -35
67 -31 l31 5 25 -104 c14 -58 30 -104 37 -104 18 0 63 60 63 85 0 20 -15 38
-110 126 -9 9 -29 50 -45 93 -30 82 -29 90 15 144 21 25 14 27 104 -25 33 -20
90 -16 120 8 44 35 56 72 47 145 0 5 -16 36 -35 67 l-34 56 46 -5 c126 -15
348 -115 545 -247 61 -42 121 -84 132 -94 32 -29 115 -87 190 -133 38 -24 81
-55 95 -70 l25 -27 37 186 c38 187 40 195 51 241 15 62 38 167 41 181 1 7 11
46 21 85 l19 71 45 -32 c78 -55 149 -66 257 -39 13 4 45 1 69 -6 43 -12 45
-15 45 -49 1 -32 6 -39 46 -63 25 -16 58 -28 74 -28 24 0 31 -5 36 -27 3 -16
13 -53 21 -83 12 -41 14 -80 9 -161 -7 -117 -21 -168 -64 -232 -27 -41 -34
-82 -19 -121 5 -12 -4 -20 -34 -32 -22 -9 -38 -22 -36 -28 2 -6 23 -21 48 -33
24 -12 37 -22 29 -23 -8 0 -37 -11 -65 -24 l-50 -24 55 -51 c58 -55 58 -55
-29 -51 -49 2 -70 12 -116 52 -36 33 -79 36 -115 8 l-25 -19 26 -26 c27 -28
75 -35 147 -21 22 4 32 2 33 -6 2 -35 9 -51 29 -65 49 -34 70 -64 70 -98 0
-22 5 -35 13 -35 51 0 137 -181 137 -288 l0 -44 -32 7 c-46 10 -91 7 -106 -9
-7 -7 -15 -29 -19 -49 -5 -32 -3 -37 14 -37 11 0 33 6 49 14 65 32 207 87 211
82 3 -3 13 -29 23 -59 20 -60 16 -100 -12 -137 -23 -30 -18 -56 22 -112 57
-78 41 -121 -89 -248 -55 -52 -101 -102 -104 -110 -6 -19 24 -71 38 -67 5 2
25 23 43 48 58 76 81 98 108 105 35 9 88 -19 103 -54 13 -28 18 -23 -64 -73
-27 -16 -74 -45 -103 -63 l-52 -33 52 -49 c29 -27 70 -62 91 -78 20 -16 37
-32 37 -37 0 -4 -21 -29 -46 -54 -25 -26 -43 -52 -41 -58 5 -17 78 -9 99 10
10 9 26 40 35 70 25 79 28 76 58 -52 9 -38 18 -78 20 -88 2 -12 -10 -24 -42
-41 l-45 -23 27 -21 c15 -12 35 -22 45 -22 24 0 50 -32 50 -61 0 -16 -11 -33
-30 -47 -16 -12 -36 -35 -44 -51 -14 -26 -14 -30 3 -45 10 -9 38 -17 62 -19
l44 -3 -2 -130 c-2 -163 -25 -259 -87 -358 -39 -63 -44 -79 -50 -149 -9 -132
-53 -200 -148 -231 -40 -13 -86 -15 -234 -13 -127 2 -185 -1 -188 -8 -8 -21
16 -119 41 -169 14 -27 58 -105 99 -173 l73 -123 -63 6 c-62 6 -64 6 -100 -27
-40 -38 -55 -89 -32 -108 8 -7 29 -13 46 -13 36 -1 46 -15 53 -80 8 -64 23
-85 88 -116 31 -15 65 -40 77 -56 12 -17 20 -31 19 -32 -3 -2 -134 -16 -172
-18 l-30 -1 -3 103 c-1 56 -6 102 -10 102 -13 -1 -38 -24 -49 -45 -10 -20 -10
-86 0 -137 5 -25 1 -28 -59 -54 -35 -15 -64 -31 -64 -36 0 -4 25 -27 55 -50
l54 -43 -29 -30 c-38 -40 -39 -79 -2 -131 41 -59 68 -113 88 -177 15 -50 21
-58 39 -54 102 24 223 60 249 75 17 10 44 37 61 59 16 23 32 42 35 42 8 0 101
-192 96 -197 -3 -2 -27 1 -53 7 -90 20 -104 21 -110 4 -19 -49 -2 -116 47
-193 29 -45 38 -79 39 -148 1 -21 10 -42 26 -58 41 -41 44 -55 31 -119 -14
-69 -6 -115 29 -160 24 -31 64 -54 177 -100 89 -36 140 -90 163 -174 27 -95
38 -90 199 96 75 86 139 167 142 180 9 35 -2 64 -41 108 -19 22 -38 50 -41 62
-7 24 0 84 16 142 5 21 11 53 13 71 2 26 7 34 27 37 33 5 36 10 15 33 -23 25
-32 25 -40 0 -3 -11 -13 -20 -22 -20 -14 0 -152 67 -163 80 -3 3 -29 16 -58
30 -61 28 -118 30 -155 5 -30 -19 -41 -15 -62 24 -23 45 -25 80 -9 125 39 109
34 158 -25 235 l-19 25 -86 -28 c-48 -16 -89 -27 -91 -24 -3 3 -8 31 -11 64
-5 51 -3 67 17 105 15 29 23 62 23 99 1 48 -3 60 -31 95 -18 22 -40 65 -49 95
-26 88 -56 113 -155 125 -30 3 -68 10 -85 16 -31 10 -34 18 -21 69 2 8 7 32
12 53 9 43 8 43 90 32 114 -15 129 -15 147 1 16 15 18 14 30 -12 7 -16 26 -51
42 -77 l29 -48 25 43 c29 51 52 78 64 78 4 0 19 -24 32 -54 13 -29 53 -86 90
-126 36 -39 66 -75 66 -80 0 -18 61 -51 105 -57 44 -5 45 -4 45 22 0 47 -30
94 -76 121 l-44 26 6 72 c3 39 8 73 9 74 2 2 18 -4 35 -14 59 -36 115 -145
146 -284 38 -175 57 -248 75 -290 l20 -45 33 39 c20 24 37 36 44 32 7 -4 26
-34 42 -66 28 -56 46 -77 56 -67 2 2 7 31 10 63 4 51 -3 87 -59 279 -71 247
-74 224 28 247 69 15 70 20 27 106 -41 84 -57 83 -53 -4 2 -65 -9 -64 -34 3
-21 55 -45 87 -57 75 -15 -15 -21 -106 -10 -145 9 -34 9 -37 -6 -33 -9 3 -50
13 -90 21 l-73 17 21 33 c19 31 19 38 8 104 -14 82 -27 89 -90 46 -52 -35 -87
-47 -120 -40 -23 5 -28 12 -28 35 0 53 47 82 137 83 44 0 67 5 77 16 16 18 16
17 16 66 0 19 4 35 8 35 4 0 33 -25 63 -55 l56 -56 27 28 c15 15 35 40 44 55
20 34 30 34 76 7 91 -54 206 -58 336 -11 95 33 161 96 220 209 56 109 156 179
290 203 71 13 419 23 421 12 0 -4 2 -16 3 -27 4 -33 56 -258 66 -285 5 -14 11
-36 14 -50 2 -14 20 -90 40 -170 20 -80 36 -152 36 -160 0 -9 -33 -49 -73 -90
-40 -41 -85 -91 -100 -112 -15 -20 -33 -43 -41 -50 -47 -48 -56 -209 -18 -328
42 -130 156 -260 241 -276 75 -15 221 65 329 180 115 122 116 202 6 377 -52
82 -94 179 -94 217 0 17 4 18 38 8 46 -14 131 -98 161 -159 35 -72 62 -85 118
-55 31 16 59 20 158 22 94 2 131 6 171 22 71 29 153 85 211 145 26 27 73 66
104 86 30 20 65 51 76 68 56 84 70 254 32 367 -11 34 -23 82 -25 107 -7 77
-14 124 -21 161 -4 19 -8 76 -8 127 0 77 3 96 21 119 25 34 71 61 111 66 l28
3 -45 30 c-119 78 -171 127 -236 226 -59 89 -70 119 -44 119 4 0 55 22 112 49
168 80 215 100 283 122 35 11 75 29 89 40 43 34 65 168 29 170 -10 1 -28 3
-40 4 -27 3 -28 -3 -7 -34 l17 -23 -135 7 c-115 6 -136 4 -141 -8 -7 -17 -43
-25 -204 -42 -81 -9 -85 10 -10 51 86 48 124 56 280 63 15 1 16 5 7 21 -6 11
-16 20 -23 20 -7 0 -29 5 -49 11 -30 8 -38 15 -38 33 0 12 3 26 7 29 3 4 16
34 28 68 11 33 23 61 25 61 3 0 24 -5 47 -12 l42 -13 -15 -29 c-15 -28 -14
-32 10 -66 28 -42 81 -100 111 -122 11 -8 5 2 -12 23 -18 21 -33 44 -33 51 0
9 21 19 53 26 65 16 84 32 92 81 6 33 11 39 31 39 28 0 48 -27 63 -87 10 -35
16 -43 42 -48 43 -10 53 4 54 75 2 40 8 66 19 78 22 25 20 59 -5 107 -12 21
-22 53 -23 69 l-2 30 35 -41 c20 -22 47 -63 61 -91 16 -34 31 -52 43 -52 27 0
187 73 187 85 0 5 -61 73 -134 150 -130 135 -135 139 -159 126 -13 -7 -34 -30
-46 -51 -36 -64 -100 -90 -135 -54 -14 14 -14 19 3 53 19 37 59 68 136 106 22
11 61 41 86 67 50 50 140 179 150 213 3 12 -8 44 -29 85 -65 120 -92 174 -92
182 0 5 12 8 28 8 24 0 33 -12 94 -123 71 -129 98 -166 126 -168 9 -1 24 -2
32 -3 56 -6 153 50 190 109 29 47 25 71 -20 125 -50 60 -58 96 -35 156 15 40
16 51 4 86 -18 56 -16 118 6 151 22 34 248 186 342 229 61 29 76 32 187 35 66
1 136 8 155 14 110 34 323 177 495 331 126 112 279 268 315 321 116 169 151
352 106 557 -3 14 -19 102 -35 195 -63 363 -149 561 -319 732 -124 125 -328
240 -471 268 -7 1 -70 14 -100 20 -114 24 -425 24 -522 1 -145 -34 -296 -108
-389 -191 -28 -25 -110 -118 -162 -185 -7 -8 -43 -64 -82 -125 -113 -178 -211
-301 -360 -452 -161 -162 -214 -197 -305 -197 -66 0 -130 12 -130 24 0 4 17
19 38 31 20 13 50 35 66 50 l28 26 -36 7 c-20 4 -36 13 -36 19 0 7 -5 18 -12
25 -8 8 -24 -1 -65 -38 -48 -44 -101 -70 -143 -70 -39 1 -105 45 -186 128 -92
93 -130 117 -271 173 -211 84 -422 202 -698 393 -121 84 -240 161 -265 171
-37 15 -76 19 -215 21 -93 2 -190 6 -215 9 -70 11 -132 42 -158 80 -21 30 -26
32 -43 22 -11 -7 -22 -20 -25 -30 -5 -15 -54 -35 -74 -30 -3 1 -22 4 -42 7
-21 3 -57 10 -80 15 -24 6 -65 13 -93 16 -82 10 -218 34 -255 45 -19 6 -71 31
-115 55 -122 69 -216 112 -375 172 -80 30 -174 66 -210 80 -128 50 -149 55
-186 37 -23 -11 -41 -32 -62 -72 l-28 -57 -120 2 c-142 2 -213 24 -280 85 -65
60 -95 144 -109 308 -12 147 -16 175 -31 230 -30 108 -35 133 -29 164 3 17 8
65 11 106 5 65 3 80 -16 115 -13 22 -30 54 -40 72 -42 77 -140 212 -197 271
-35 35 -63 66 -63 68 0 2 24 3 53 1 50 -2 52 -1 49 23 -6 55 -23 79 -67 96
-47 17 -82 15 -77 -5 1 -7 5 -32 9 -56 5 -42 5 -44 -17 -38 -13 4 -78 34 -144
69 -72 37 -143 66 -176 72 -50 9 -370 8 -430 -2 -144 -23 -206 -88 -250 -261
-21 -81 -20 -80 -55 -309 -14 -93 -30 -187 -36 -210 -5 -22 -12 -50 -14 -62
-11 -50 -39 -114 -76 -176 -22 -37 -47 -89 -55 -115 -14 -46 -36 -182 -49
-308 -4 -33 -11 -77 -16 -98 l-10 -38 -54 5 c-87 7 -85 -5 24 -133 38 -46 77
-98 86 -116 21 -47 33 -115 24 -147 -6 -25 -4 -29 28 -40 29 -10 62 -46 163
-178 69 -91 171 -235 225 -320 104 -165 119 -188 239 -373 110 -170 100 -174
-121 -47 -156 90 -202 126 -204 158 -4 63 -7 83 -10 87 -3 2 -24 -9 -48 -26
-27 -17 -57 -29 -77 -29 -22 0 -95 32 -221 97 -285 146 -305 155 -353 159 -25
3 -58 9 -75 16 -30 11 -85 56 -85 69 0 15 33 18 81 8 28 -6 52 -9 55 -6 5 4
-76 150 -98 177 -18 22 -60 50 -75 50 -17 0 -29 -32 -36 -99 -5 -47 -17 -84
-17 -52 0 22 -41 71 -79 95 -32 20 -146 56 -180 56 -6 0 -29 -11 -49 -25 -59
-40 -101 -32 -232 45 -43 26 -82 60 -115 101 -98 124 -157 179 -244 230 -148
89 -245 154 -306 209 -33 28 -77 61 -98 71 -48 25 -285 115 -326 124 -43 9
-39 22 9 30 48 8 51 18 10 35 -21 9 -44 34 -72 82 -48 81 -73 101 -126 100
l-39 -1 -12 66 c-29 160 -156 280 -379 359 -43 15 -58 26 -72 55 -18 35 -48
64 -144 143 -34 27 -57 58 -79 105 -46 100 -104 183 -147 214 -53 37 -192 72
-307 76 -29 1 -29 15 1 83 l24 55 -61 54 c-65 58 -75 63 -94 51 -10 -6 -9 -20
6 -62 11 -30 17 -58 15 -62 -4 -7 -36 1 -85 20 -21 8 -173 122 -189 142 -3 3
-54 46 -115 95 -60 49 -112 92 -115 95 -3 3 -69 57 -147 120 -91 71 -140 117
-135 124 21 29 44 119 38 149 -10 54 -80 117 -184 165 -75 34 -81 35 -94 6 -6
-13 -14 -24 -17 -24 -3 1 -23 23 -45 51 -37 48 -39 49 -57 33 -15 -14 -19 -30
-18 -84 2 -90 -5 -108 -36 -102 -13 2 -36 15 -50 28 -25 23 -26 27 -19 97 l6
73 -33 28 c-18 16 -63 43 -99 61 -36 18 -109 56 -164 84 -101 54 -127 59 -132
28 -1 -10 -8 -40 -15 -68 -13 -48 -15 -50 -42 -45 -15 3 -110 43 -210 90 -100
46 -193 87 -205 91 -22 6 -23 11 -17 51 10 69 -16 139 -88 240 -35 49 -86 131
-112 182 -45 85 -87 140 -200 257 -22 23 -96 102 -165 176 -69 73 -134 143
-145 155 -11 11 -81 85 -155 165 -335 357 -461 481 -581 571 -100 76 -167 110
-272 138 -119 31 -287 49 -287 30z m1574 -1817 c9 -18 12 -33 6 -33 -15 0 -43
48 -35 60 8 13 8 14 29 -27z m279 -345 c29 -15 46 -39 47 -64 0 -47 -29 -38
-70 22 -17 23 -30 45 -30 48 0 10 30 7 53 -6z m175 -231 c30 -67 31 -73 15
-84 -9 -7 -20 -10 -23 -6 -18 20 -62 144 -57 157 11 28 31 7 65 -67z m1387
-383 c20 -21 14 -27 -19 -18 -14 3 -26 12 -26 20 0 19 25 18 45 -2z m-150 -13
c59 -27 126 -91 198 -189 58 -79 157 -262 157 -291 0 -6 -23 7 -51 29 -47 37
-53 39 -69 25 -27 -25 -48 -18 -55 18 -14 62 -105 219 -195 337 -15 19 -35 47
-45 63 -17 26 -17 27 1 27 11 0 37 -9 59 -19z m355 -313 c0 -20 0 -20 -32 -1
-38 22 -48 49 -21 56 22 5 53 -27 53 -55z m151 -10 c20 -40 45 -92 55 -115 18
-41 38 -55 46 -32 2 7 0 43 -5 82 -7 55 -6 71 4 78 22 14 29 11 39 -16 46
-122 102 -198 177 -242 23 -13 43 -28 43 -32 0 -3 -14 -12 -31 -20 -17 -8 -46
-27 -64 -42 -18 -16 -45 -35 -60 -43 -39 -20 -71 -2 -121 66 -22 29 -44 60
-51 68 -25 31 -115 156 -123 170 -8 15 -13 53 -11 77 1 14 50 73 60 73 4 0 23
-33 42 -72z m47 -441 c12 -17 56 -68 97 -112 97 -103 170 -202 273 -371 77
-127 96 -174 72 -174 -6 0 -31 30 -58 66 -26 37 -101 139 -167 228 -230 309
-260 350 -273 373 -12 21 -11 23 10 23 15 0 31 -12 46 -33z m362 -205 c19 -9
43 -27 53 -39 10 -13 24 -29 30 -36 21 -21 282 -340 307 -374 13 -18 58 -53
100 -79 78 -47 130 -106 130 -147 0 -16 -8 -12 -44 21 -50 46 -105 76 -156 86
-66 12 -82 15 -98 21 -9 4 -53 56 -97 116 -44 61 -85 116 -90 122 -6 7 -35 46
-65 87 -30 41 -78 105 -107 142 -61 77 -70 114 -25 103 15 -3 43 -14 62 -23z
m-1072 -61 c64 -33 130 -115 225 -279 l36 -62 -37 15 c-74 31 -142 97 -204
197 -34 55 -73 148 -62 148 3 0 21 -9 42 -19z m1252 -465 c0 -11 -19 -15 -25
-6 -3 5 1 10 9 10 9 0 16 -2 16 -4z m774 -11 c-4 -8 -10 -12 -15 -9 -14 8 -10
24 6 24 9 0 12 -6 9 -15z m418 -172 c34 -30 45 -104 16 -109 -30 -4 -88 80
-88 129 0 13 51 -1 72 -20z m-2168 -65 c11 -41 8 -52 -9 -38 -16 13 -21 60 -6
60 5 0 11 -10 15 -22z m1380 -299 c150 -198 165 -231 83 -186 -56 31 -147 156
-257 351 l-33 58 30 -16 c18 -9 88 -91 177 -207z m-774 -164 c0 -29 -24 -27
-52 4 -28 31 -28 34 -11 47 16 12 21 11 41 -12 12 -14 22 -31 22 -39z m2464
-270 c3 -8 2 -15 -3 -15 -5 0 -14 7 -21 15 -10 12 -10 15 3 15 8 0 17 -7 21
-15z m8680 -57 c-11 -12 -21 -15 -27 -9 -16 16 0 40 23 34 20 -5 20 -6 4 -25z
m-4774 -38 c0 -15 -21 -12 -42 7 -28 25 -21 35 12 18 17 -9 30 -20 30 -25z
m5917 -117 c2 -6 -3 -13 -12 -16 -10 -5 -15 0 -15 14 0 21 21 22 27 2z m-1567
-53 c20 -20 28 -60 12 -60 -11 0 -36 28 -51 58 -10 18 -9 22 4 22 8 0 24 -9
35 -20z m-3001 -19 c11 -20 5 -31 -16 -31 -7 0 -13 11 -13 25 0 29 15 33 29 6z
m-6021 -187 c26 -41 27 -50 7 -57 -17 -7 -80 67 -70 83 12 20 40 8 63 -26z
m9924 -96 c-9 -9 -15 -9 -24 0 -10 10 -10 15 2 22 20 12 38 -6 22 -22z m825
-24 c5 -15 -20 -24 -37 -14 -7 4 -9 13 -5 19 8 14 37 11 42 -5z m-11066 -121
c9 -24 -3 -128 -16 -141 -8 -8 -56 41 -67 68 -6 14 -12 56 -15 93 l-4 69 46
-32 c25 -17 51 -43 56 -57z m-856 -20 c14 -21 25 -41 25 -44 0 -4 -14 -12 -31
-19 -26 -11 -32 -11 -40 1 -17 26 -8 99 12 99 4 0 20 -17 34 -37z m7501 -43
c29 -90 28 -85 5 -87 -14 -1 -24 14 -44 75 -26 80 -26 95 0 90 10 -2 25 -32
39 -78z m971 20 c8 -32 8 -40 -3 -40 -16 0 -47 57 -39 70 13 21 31 8 42 -30z
m-284 -12 c3 -18 8 -41 12 -50 9 -23 -12 -24 -37 -1 -18 16 -25 63 -11 76 15
16 31 5 36 -25z m-6692 -120 c85 -88 104 -120 112 -185 6 -54 -11 -57 -44 -8
-26 38 -35 41 -89 33 -24 -3 -25 0 -32 62 -7 71 -11 91 -27 133 -27 69 -13 63
80 -35z m4430 40 c20 -68 20 -69 -4 -62 -30 9 -48 33 -43 61 11 57 31 57 47 1z
m5219 -35 c0 -6 -8 -9 -20 -6 -16 4 -18 9 -9 25 9 17 13 18 20 7 5 -8 9 -19 9
-26z m-11038 -16 c22 -23 103 -119 110 -132 6 -10 -1 -11 -33 -4 -79 18 -109
49 -109 111 0 40 10 47 32 25z m8236 -129 c35 -76 30 -84 -31 -43 -43 30 -74
84 -83 147 l-6 43 49 -50 c27 -27 59 -71 71 -97z m3716 90 c4 -24 10 -61 13
-83 3 -22 6 -44 7 -50 1 -10 -22 -11 -61 -2 -18 5 -22 0 -27 -28 -4 -18 -16
-44 -27 -58 -17 -23 -23 -25 -49 -16 -41 15 -49 46 -17 73 33 27 38 47 19 69
-15 16 -13 20 19 46 19 16 49 43 68 60 18 17 37 31 41 31 4 0 11 -19 14 -42z
m-6280 -159 c7 -44 2 -59 -18 -59 -8 0 -16 16 -20 38 -9 56 -8 62 13 62 14 0
20 -10 25 -41z m5636 19 c0 -16 -3 -19 -11 -11 -6 6 -8 16 -5 22 11 17 16 13
16 -11z m-830 -14 c0 -2 -7 -4 -15 -4 -8 0 -15 4 -15 10 0 5 7 7 15 4 8 -4 15
-8 15 -10z m-3392 -78 c3 -12 -1 -17 -10 -14 -7 3 -15 13 -16 22 -3 12 1 17
10 14 7 -3 15 -13 16 -22z m-5499 -13 c16 -16 120 -142 231 -281 194 -243 221
-285 195 -310 -9 -10 -76 67 -198 228 -56 74 -144 190 -195 257 -50 66 -92
124 -92 127 0 15 32 3 59 -21z m-298 -101 c83 -122 88 -134 51 -126 -78 18
-125 82 -138 191 -7 62 10 49 87 -65z m4497 36 c9 -44 6 -68 -8 -68 -8 0 -14
20 -24 83 -8 46 22 33 32 -15z m2504 31 c45 -12 68 -49 68 -106 l0 -38 -56 60
c-89 96 -90 106 -12 84z m-5542 -36 l-1 -38 -14 25 c-19 33 -19 50 0 50 11 0
15 -11 15 -37z m9038 15 c19 -19 14 -28 -13 -28 -27 0 -28 1 -19 24 7 19 16
20 32 4z m-734 -73 c7 -20 -21 -32 -37 -16 -9 9 -8 14 3 21 21 13 27 12 34 -5z
m636 -5 c0 -21 -8 -24 -34 -14 -25 10 -19 34 9 34 18 0 25 -5 25 -20z m-2291
-132 c39 -65 76 -129 81 -143 9 -24 8 -26 -12 -19 -74 22 -122 66 -138 126
-14 51 -22 174 -11 162 5 -5 41 -62 80 -126z m-9055 95 c3 -8 3 -26 0 -40 l-7
-26 -18 34 c-10 19 -18 39 -19 46 0 16 37 4 44 -14z m468 -170 c19 -20 61
-114 54 -120 -7 -7 -77 59 -92 88 -7 15 -14 37 -14 49 0 17 3 19 18 11 9 -5
25 -17 34 -28z m10769 16 c20 -20 20 -21 2 -34 -26 -20 -51 -18 -63 6 -9 15
-8 24 1 35 16 20 35 18 60 -7z m-141 -33 c-1 -39 -12 -52 -43 -49 -63 8 -77
13 -77 32 0 10 2 20 5 22 10 11 115 6 115 -5z m-2565 -95 c6 -10 20 -37 33
-61 25 -45 23 -82 -3 -60 -22 19 -65 96 -65 119 0 26 22 27 35 2z m-277 -35
c22 -28 22 -70 1 -74 -9 -2 -20 11 -27 31 -23 65 -10 88 26 43z m-7658 -26
c32 0 150 -151 150 -192 0 -45 -30 -14 -165 166 -22 30 -25 38 -11 33 9 -4 21
-7 26 -7z m10403 -42 c9 -34 -4 -47 -31 -29 -12 7 -12 12 -1 30 17 27 25 27
32 -1z m-9607 -150 c16 -31 18 -58 5 -58 -11 0 -83 71 -118 118 -20 26 -23 35
-13 46 10 13 19 7 62 -32 27 -26 56 -59 64 -74z m-1015 45 c24 -55 24 -73 1
-73 -20 0 -67 82 -59 103 11 28 39 14 58 -30z m8337 -110 c-5 -20 -61 13 -80
48 -22 38 -22 48 -1 71 16 18 18 16 50 -44 18 -35 32 -68 31 -75z m-6875 26
c31 -42 57 -80 57 -86 0 -26 -42 -21 -77 10 -43 38 -63 82 -63 139 1 36 3 40
13 27 7 -8 38 -49 70 -90z m6578 -47 c24 -43 25 -50 11 -58 -13 -8 -21 -1 -43
40 -15 28 -25 54 -22 59 11 18 30 3 54 -41z m2258 -11 c7 -13 6 -23 -4 -37
-15 -18 -16 -18 -35 4 -10 13 -16 30 -13 37 7 21 40 18 52 -4z m-1282 -99 c31
-44 35 -55 23 -63 -11 -7 -26 2 -57 35 -37 39 -43 51 -43 88 l0 43 20 -25 c11
-14 37 -49 57 -78z m-7867 -9 c0 -7 0 -16 1 -20 2 -20 -22 -10 -54 24 -35 35
-36 38 -20 56 17 18 18 17 45 -15 15 -18 28 -39 28 -45z m7250 57 c6 -11 8
-25 5 -30 -11 -19 -23 -10 -27 20 -5 34 6 39 22 10z m-276 -81 c8 -12 12 -28
9 -36 -5 -12 -10 -11 -24 8 -20 26 -25 49 -10 49 6 0 17 -10 25 -21z m-6892
-84 c24 -16 35 -30 32 -40 -8 -21 -24 -19 -58 8 -30 25 -43 57 -22 57 6 0 28
-11 48 -25z m120 -178 c-4 -16 -7 -16 -26 -4 -40 27 -47 56 -24 101 l21 41 17
-60 c9 -33 15 -68 12 -78z m6864 85 c66 -58 105 -132 118 -219 l6 -38 -47 50
c-54 59 -140 235 -115 235 4 0 21 -12 38 -28z m928 -24 c14 -28 24 -53 22 -55
-16 -17 -92 68 -82 92 11 29 35 14 60 -37z m-7362 -42 c34 -35 251 -320 275
-360 16 -27 16 -38 0 -60 -12 -16 -26 -1 -139 150 -126 169 -182 259 -172 275
8 13 21 11 36 -5z m981 -46 c25 -49 26 -55 11 -59 -10 -2 -25 7 -35 20 -20 26
-39 85 -31 94 13 12 28 -3 55 -55z m-103 -29 c22 -79 2 -80 -24 -2 -20 61 -20
67 -1 51 8 -7 19 -29 25 -49z m-1195 -61 c50 -74 165 -233 189 -262 29 -34 38
-60 27 -71 -13 -13 -20 -6 -130 123 -67 78 -155 206 -167 242 -5 18 8 37 27
38 3 0 27 -32 54 -70z m7781 22 l26 -43 -39 7 c-46 8 -63 20 -63 45 0 18 27
41 43 36 4 -1 19 -22 33 -45z m-2091 -29 c14 -16 63 -82 108 -148 44 -66 87
-126 94 -133 25 -26 15 -49 -27 -57 -47 -9 -176 201 -205 333 -8 39 -3 40 30
5z m2156 -49 c15 -19 17 -120 3 -134 -5 -5 -35 -12 -66 -15 l-57 -6 42 85 c22
48 46 86 53 86 6 0 18 -7 25 -16z m-6811 -14 c0 -5 -2 -10 -4 -10 -3 0 -8 5
-11 10 -3 6 -1 10 4 10 6 0 11 -4 11 -10z m6217 -59 c28 -49 21 -84 -9 -49
-35 39 -50 67 -43 78 12 20 30 10 52 -29z m-236 -22 c59 -29 57 -45 -9 -64
-130 -38 -130 -39 -111 57 l11 56 37 -15 c20 -8 52 -24 72 -34z m-351 -11 c0
-4 -6 -8 -12 -8 -7 -1 -31 -9 -52 -19 -40 -19 -70 -18 -63 3 2 6 26 23 53 38
44 24 50 25 62 10 6 -9 12 -19 12 -24z m983 -20 c23 -13 44 -24 45 -25 10 -4
-11 -43 -23 -43 -26 0 -95 44 -95 60 0 36 17 38 73 8z m-7694 -12 c6 -7 18
-37 25 -65 12 -47 12 -51 -4 -51 -12 0 -21 14 -30 48 -7 26 -14 55 -17 65 -5
20 10 23 26 3z m1329 -31 c-3 -3 -9 2 -12 12 -6 14 -5 15 5 6 7 -7 10 -15 7
-18z m6370 -123 c70 -46 136 -92 146 -103 19 -18 19 -18 -5 -28 -13 -5 -58
-23 -101 -39 -89 -36 -161 -48 -176 -29 -15 18 -4 30 48 48 25 9 46 23 48 31
2 8 -7 32 -19 52 -17 30 -26 36 -43 32 -12 -3 -51 -9 -87 -12 -76 -7 -118 9
-140 55 -14 30 -20 99 -8 107 5 2 20 -13 35 -35 14 -23 30 -38 34 -36 5 3 14
22 20 43 6 20 13 42 15 49 4 13 21 3 233 -135z m-6738 94 c0 -3 -4 -8 -10 -11
-5 -3 -10 -1 -10 4 0 6 5 11 10 11 6 0 10 -2 10 -4z m5610 -56 c6 -11 8 -26 4
-32 -5 -8 -10 -5 -15 8 -16 41 -8 59 11 24z m719 -70 c73 -37 66 -47 -34 -50
-95 -4 -108 -2 -131 14 -18 14 -17 16 22 33 57 26 98 27 143 3z m-7030 -19 c8
-5 11 -16 8 -24 -5 -12 -22 -15 -59 -8 -5 0 -8 10 -8 21 0 22 33 28 59 11z
m4395 -53 c40 -54 194 -312 241 -406 70 -138 84 -192 52 -192 -10 0 -152 243
-277 475 -17 33 -43 78 -56 101 -19 31 -22 43 -12 47 23 9 27 8 52 -25z
m-4626 -14 c25 -17 29 -51 8 -80 -14 -18 -16 -16 -35 29 -12 27 -21 53 -21 58
0 14 23 11 48 -7z m1732 -43 c-1 -12 -6 -10 -20 8 -11 12 -17 28 -13 34 8 12
33 -20 33 -42z m3680 9 c0 -5 -4 -10 -10 -10 -5 0 -10 5 -10 10 0 6 5 10 10
10 6 0 10 -4 10 -10z m-3904 -210 c165 -399 223 -549 229 -593 4 -26 4 -47 1
-47 -10 0 -107 100 -132 138 l-24 35 0 -57 c0 -62 -11 -69 -36 -26 -15 27 -74
158 -74 165 0 2 -29 83 -65 180 -36 96 -65 184 -65 195 0 11 13 48 28 82 16
35 34 76 41 92 6 16 14 27 16 24 2 -2 38 -87 81 -188z m5964 150 c0 -14 -17
-21 -34 -14 -12 5 -14 10 -6 20 12 13 40 9 40 -6z m-326 -65 c28 -12 35 -20
34 -39 -2 -21 -5 -23 -25 -15 -59 22 -102 69 -64 69 10 0 35 -7 55 -15z
m-5404 -55 c30 -59 25 -75 -14 -47 -11 8 -20 31 -23 56 -6 52 8 49 37 -9z
m-1167 -59 l77 -93 -55 -55 c-52 -53 -56 -55 -78 -40 -23 15 -36 47 -19 47 5
0 26 7 46 15 l36 15 -61 95 c-55 86 -67 122 -36 112 7 -2 47 -45 90 -96z
m1101 -26 l6 -30 -20 24 c-20 23 -26 52 -13 65 8 7 16 -11 27 -59z m-688 1 c2
-14 2 -26 0 -26 -11 0 -27 41 -20 51 8 14 14 7 20 -25z m4434 24 c0 -5 -7 -10
-15 -10 -8 0 -15 5 -15 10 0 6 7 10 15 10 8 0 15 -4 15 -10z m1720 -100 c0 -6
-12 -22 -27 -35 l-28 -23 37 -76 c21 -42 34 -76 30 -76 -7 0 -125 79 -138 93
-6 6 23 96 36 112 14 17 90 21 90 5z m-5968 -33 c9 -12 4 -90 -7 -107 -19 -31
-67 14 -68 62 0 71 0 71 35 64 18 -3 36 -12 40 -19z m5016 -75 c20 -27 25 -45
23 -70 -2 -29 -38 19 -55 76 -10 31 8 28 32 -6z m-4153 -2 c18 -20 18 -21 -5
-12 -13 5 -26 14 -28 20 -6 19 13 14 33 -8z m-201 -26 c3 -8 -1 -14 -8 -14
-16 0 -38 24 -30 33 9 9 32 -3 38 -19z m4939 -5 c4 -13 0 -19 -11 -20 -17 -1
-34 -3 -84 -13 -16 -3 -28 -1 -28 4 0 6 0 13 -1 17 -1 10 93 40 108 35 6 -2
13 -12 16 -23z m692 -7 c6 -4 33 -35 59 -70 56 -74 56 -88 -5 -150 -43 -43
-54 -48 -78 -33 -15 9 -5 36 25 66 23 23 21 54 -10 118 -14 31 -26 61 -26 66
0 13 20 14 35 3z m505 -38 c0 -11 -9 -14 -37 -12 -52 4 -56 28 -4 28 30 0 41
-4 41 -16z m-7109 -93 c35 -35 58 -72 69 -110 11 -39 -2 -34 -64 27 -54 52
-94 109 -106 151 l-9 32 42 -37 c23 -20 54 -49 68 -63z m6859 66 c0 -18 -2
-19 -10 -7 -13 20 -13 43 0 35 6 -3 10 -16 10 -28z m-687 -16 c4 -1 7 -5 7
-11 0 -15 -36 -12 -50 5 -11 13 -9 15 11 11 13 -3 27 -5 32 -5z m-1987 -93
c35 -42 63 -105 64 -140 0 -34 -6 -35 -31 -5 -37 42 -72 109 -76 143 -4 43 8
43 43 2z m1918 -223 c4 -12 -5 -15 -49 -15 -83 0 -68 24 16 29 16 0 29 -5 33
-14z m-5197 -37 c46 -52 82 -118 103 -188 12 -41 31 -92 41 -112 11 -22 19
-58 19 -88 0 -33 4 -49 11 -45 23 15 57 -5 64 -37 10 -49 114 -340 130 -364
18 -28 9 -37 -50 -53 -98 -27 -100 -27 -117 16 -9 21 -33 79 -54 128 -20 50
-45 119 -54 155 l-16 65 -18 -53 c-10 -29 -23 -51 -29 -49 -11 3 -189 528
-182 536 3 2 21 -3 41 -12 19 -10 39 -15 44 -12 8 5 33 98 33 123 0 18 11 15
34 -10z m3413 -9 c0 -22 -22 -25 -39 -5 -10 11 -8 16 6 24 22 13 33 7 33 -19z
m-3323 -56 c-3 -10 -5 -2 -5 17 0 19 2 27 5 18 2 -10 2 -26 0 -35z m-1255
-158 c266 -341 333 -434 319 -448 -16 -16 -38 -1 -79 56 -22 30 -46 60 -54 68
-7 8 -76 95 -153 194 -77 99 -147 189 -157 199 -10 11 -18 23 -18 27 0 9 32
29 41 26 4 -1 49 -56 101 -122z m5406 83 c-6 -17 -108 -17 -108 0 0 8 18 12
56 12 39 0 54 -4 52 -12z m1355 -9 l70 -21 -21 -20 c-23 -24 -88 -27 -121 -6
-22 14 -30 68 -10 68 7 0 43 -9 82 -21z m-7056 -113 c0 -8 -6 -12 -14 -9 -7 3
-10 9 -7 14 8 14 21 11 21 -5z m6753 -46 c0 -14 -11 -22 -37 -29 -88 -25 -103
7 -18 37 44 16 55 14 55 -8z m-1681 -34 c23 -45 22 -66 -5 -66 -8 0 -14 1 -14
3 0 1 -9 26 -20 55 -19 49 -19 52 -2 52 10 0 26 -18 41 -44z m-4035 -10 c23
-43 16 -55 -18 -33 -30 20 -43 56 -25 68 17 10 20 7 43 -35z m-984 -36 c-11
-7 -17 -4 -21 8 -10 26 1 36 20 18 14 -15 14 -18 1 -26z m6122 -10 c28 -13 42
-35 32 -51 -6 -10 -187 -13 -197 -3 -8 8 11 56 26 67 16 11 105 2 139 -13z
m-5315 -62 c16 -20 24 -66 14 -73 -6 -3 -27 11 -47 32 -34 33 -35 37 -18 44
28 11 40 10 51 -3z m5791 -106 c4 -23 9 -22 -107 -26 -69 -2 -60 19 16 36 81
18 87 18 91 -10z m-926 -7 c-3 -20 -7 -23 -18 -14 -15 12 -8 39 11 39 8 0 10
-9 7 -25z m-218 0 c41 -8 58 -35 22 -35 -38 0 -86 21 -86 37 0 9 6 13 14 10 8
-3 30 -9 50 -12z m577 -76 c35 -18 20 -24 -61 -25 -85 -1 -100 8 -47 31 33 14
75 12 108 -6z m-4502 -181 c1 -21 -4 -28 -18 -28 -14 0 -20 9 -23 33 -3 17
-13 49 -22 70 -16 37 -16 38 11 63 l27 25 12 -68 c7 -37 13 -80 13 -95z m4628
16 c0 -14 -10 -15 -61 -11 -34 4 -62 6 -63 7 -2 0 -3 7 -3 15 0 9 10 19 22 24
30 11 105 -14 105 -35z m-167 -54 c0 -5 -4 -10 -10 -10 -5 0 -10 5 -10 10 0 6
5 10 10 10 6 0 10 -4 10 -10z m344 -25 c7 -19 -14 -19 -40 0 -18 14 -18 14 7
15 15 0 29 -7 33 -15z m-239 -115 c-4 -22 -8 -48 -9 -58 -2 -9 -6 -16 -9 -14
-4 1 -13 2 -20 2 -13 0 -57 68 -57 88 0 6 17 13 38 15 20 2 43 4 50 5 11 2 12
-8 7 -38z m503 -71 c39 -13 72 -29 72 -36 0 -7 -6 -13 -14 -13 -24 0 -206 -65
-276 -98 -36 -17 -81 -45 -100 -61 -54 -47 -89 -50 -134 -11 -20 18 -36 37
-36 44 1 6 69 55 153 109 l152 99 55 -5 c30 -3 88 -15 128 -28z m-2897 1 c26
-14 22 -72 -7 -118 -1 -2 -11 1 -22 7 -27 14 -38 66 -21 97 14 27 21 29 50 14z
m2082 -150 c19 -30 67 -120 107 -200 39 -79 75 -149 80 -155 17 -20 41 -85 31
-85 -13 0 -71 57 -132 129 -30 36 -75 87 -100 115 -45 47 -46 51 -34 80 13 35
11 47 -28 127 -15 31 -25 64 -21 73 5 14 9 13 34 -7 15 -12 43 -47 63 -77z
m1082 27 c29 -5 28 -59 -1 -71 -12 -5 -30 -22 -40 -38 -27 -40 -62 -47 -85
-17 -23 29 -37 77 -31 102 8 30 67 39 157 24z m-300 -57 c-3 -5 -23 -14 -44
-20 -30 -8 -46 -7 -75 5 -20 8 -36 17 -36 20 0 3 36 5 81 5 49 0 78 -4 74 -10z
m-2790 -190 c-8 -13 -82 -13 -90 0 -4 6 -10 24 -15 40 l-8 30 59 -31 c33 -16
57 -34 54 -39z m-156 31 c9 -6 10 -14 4 -25 -8 -14 -12 -14 -27 -3 -11 8 -16
19 -12 25 9 14 16 15 35 3z m-1729 -130 c58 -73 80 -104 75 -109 -2 -2 -24 5
-48 17 -54 26 -93 80 -112 152 l-14 54 32 -35 c18 -20 48 -55 67 -79z m1652
93 l38 -7 -29 -51 c-46 -80 -60 -132 -57 -207 2 -38 0 -67 -4 -64 -3 2 -20 6
-36 9 -39 7 -60 35 -84 113 -52 169 2 235 172 207z m3036 -61 c6 -9 12 -26 12
-37 0 -22 -27 -56 -45 -56 -12 0 -55 81 -55 105 0 19 71 10 88 -12z m195 -79
c9 -10 -36 -73 -58 -81 -11 -4 -30 -6 -43 -4 -20 2 -22 -1 -17 -26 4 -15 8
-34 11 -40 2 -7 1 -20 -2 -28 -7 -18 -28 -8 -67 30 l-27 27 32 22 c17 11 40
37 51 56 11 19 24 38 31 42 13 9 80 10 89 2z m-3173 -83 c0 -11 -4 -23 -10
-26 -6 -4 -10 5 -10 19 0 14 5 26 10 26 6 0 10 -9 10 -19z m2191 -163 c58 -85
61 -100 17 -77 -49 26 -101 106 -117 181 l-10 43 25 -30 c14 -16 52 -69 85
-117z m-3761 110 c0 -5 8 -22 19 -36 10 -15 22 -37 25 -49 13 -42 -21 -25 -54
27 -26 41 -30 53 -20 65 13 15 30 12 30 -7z m-1974 -83 c26 -31 20 -41 -20
-31 -25 6 -46 49 -46 90 1 23 -6 29 66 -59z m2603 -329 c17 -11 32 -95 21
-116 -9 -16 -18 -18 -53 -14 -53 7 -88 40 -90 84 -2 30 1 34 38 45 39 11 66
12 84 1z m-2279 -115 c5 -11 10 -27 10 -35 0 -28 -15 -17 -26 19 -12 37 -1 48
16 16z m2113 -67 c93 -89 103 -102 110 -156 6 -46 1 -51 -33 -33 -59 31 -140
143 -169 234 -19 59 -16 58 92 -45z m1021 -935 c10 -9 -39 -69 -56 -69 -4 0
-8 21 -8 46 0 45 0 46 28 39 15 -3 31 -11 36 -16z"/>
<path d="M12136 13689 c-11 -54 -7 -80 17 -109 12 -15 27 -36 33 -46 10 -16
13 -17 28 -5 23 19 20 31 -9 31 -29 0 -37 27 -44 148 -2 24 -19 11 -25 -19z"/>
<path d="M12224 13449 c-3 -6 -1 -16 5 -22 8 -8 11 -5 11 11 0 24 -5 28 -16
11z"/>
<path d="M12251 13402 c-1 -7 8 -30 19 -52 11 -22 20 -55 20 -75 0 -19 4 -35
10 -35 15 0 2 68 -25 125 -13 28 -24 44 -24 37z"/>
<path d="M12473 12675 c0 -8 4 -15 9 -15 4 0 8 7 8 15 0 8 -4 15 -8 15 -5 0
-9 -7 -9 -15z"/>
<path d="M3560 22020 c0 -13 37 -50 50 -50 14 0 12 12 -6 38 -15 22 -44 30
-44 12z"/>
<path d="M3394 21948 c-78 -84 -124 -160 -124 -205 0 -35 22 -71 95 -153 75
-84 304 -371 435 -544 l102 -135 -8 -58 -9 -58 -44 40 c-71 64 -129 150 -151
225 -20 69 -21 69 -93 112 -39 24 -89 52 -109 63 -38 19 -38 20 -38 82 0 55
-4 66 -27 92 -16 16 -38 32 -50 36 -21 6 -23 3 -23 -32 0 -67 16 -98 141 -285
248 -371 386 -521 503 -548 l33 -7 -18 36 c-52 108 -67 149 -57 159 24 24 106
-45 206 -171 103 -130 117 -159 118 -252 1 -74 4 -85 40 -145 132 -220 372
-369 704 -436 14 -3 42 -9 63 -14 20 -4 39 -5 41 -1 2 3 -49 76 -113 161 -64
85 -213 283 -331 440 -251 333 -224 297 -253 335 -13 17 -121 161 -240 320
-312 418 -287 389 -331 396 -38 6 -55 21 -57 49 -5 77 -22 109 -120 226 -62
73 -144 144 -167 144 -4 0 -8 21 -9 46 -1 37 -7 52 -34 80 -18 19 -36 34 -39
34 -3 0 -20 -15 -36 -32z"/>
<path d="M13678 21975 c-3 -3 -2 -20 1 -38 6 -25 12 -31 27 -29 26 5 27 7 17
39 -9 26 -32 41 -45 28z"/>
<path d="M3650 21920 c0 -5 5 -10 11 -10 5 0 7 5 4 10 -3 6 -8 10 -11 10 -2 0
-4 -4 -4 -10z"/>
<path d="M3681 21877 c6 -14 18 -28 26 -31 17 -7 2 24 -22 44 -15 12 -15 11
-4 -13z"/>
<path d="M4039 21820 c-1 -5 -2 -13 -3 -17 -2 -5 -8 -35 -15 -69 -7 -34 -16
-67 -21 -73 -5 -10 -32 -4 -109 23 -55 19 -101 33 -101 30 0 -5 154 -201 268
-339 40 -49 79 -97 85 -105 210 -259 594 -765 747 -985 231 -333 359 -512 389
-541 23 -25 39 -32 70 -32 22 0 57 -10 79 -21 45 -23 154 -113 217 -178 22
-23 65 -58 95 -77 l55 -36 16 22 c15 20 19 20 35 8 16 -14 17 -13 10 15 -4 17
-23 57 -44 90 -42 70 -371 512 -400 538 -17 16 -47 21 -139 26 -15 1 -153 144
-227 235 -114 140 -166 250 -186 389 -14 102 -34 137 -188 332 -53 68 -149
191 -212 274 -188 248 -310 404 -349 444 -41 44 -70 63 -72 47z"/>
<path d="M3752 21775 c12 -25 26 -45 30 -45 16 0 7 51 -12 70 -33 33 -41 23
-18 -25z"/>
<path d="M12060 21618 c-46 -31 -52 -52 -12 -44 27 6 32 3 53 -31 12 -21 24
-40 26 -42 1 -2 28 13 60 34 l57 38 -39 33 c-47 41 -96 45 -145 12z"/>
<path d="M15975 21434 c-43 -23 -55 -42 -55 -90 0 -35 4 -43 23 -48 45 -12 45
-12 63 69 21 91 19 95 -31 69z"/>
<path d="M9209 21405 c-1 -13 2 -79 5 -82 6 -7 46 11 46 21 0 15 -49 74 -51
61z"/>
<path d="M8542 21363 c3 -22 23 -86 43 -142 46 -125 65 -141 157 -132 22 1 37
56 26 96 -8 31 -146 168 -202 201 l-29 17 5 -40z"/>
<path d="M13754 21139 c-7 -12 15 -31 28 -23 4 3 8 12 8 20 0 17 -26 19 -36 3z"/>
<path d="M13166 21124 c-19 -19 -20 -25 -3 -48 12 -16 17 -17 38 -6 39 21 50
42 30 57 -22 17 -47 16 -65 -3z"/>
<path d="M11290 20947 c0 -18 28 -42 37 -33 9 8 -9 38 -25 44 -7 2 -12 -3 -12
-11z"/>
<path d="M12260 20853 c0 -22 63 -83 85 -83 32 0 96 68 68 71 -5 0 -25 2 -46
4 -21 2 -54 6 -73 9 -19 4 -34 3 -34 -1z"/>
<path d="M12488 20734 c-9 -8 7 -59 18 -56 8 2 10 25 5 55 -1 8 -15 9 -23 1z"/>
<path d="M9080 20629 c-1 -55 72 -225 101 -234 24 -8 98 -9 106 -2 7 8 -10 30
-83 113 -34 38 -76 85 -93 104 -20 23 -31 30 -31 19z"/>
<path d="M12512 20618 c5 -32 28 -35 28 -4 0 17 -5 26 -16 26 -10 0 -14 -7
-12 -22z"/>
<path d="M17596 20625 c-14 -15 -12 -45 4 -45 11 0 40 35 40 48 0 17 -26 15
-44 -3z"/>
<path d="M14416 20611 c-4 -7 -5 -15 -2 -18 9 -9 19 4 14 18 -4 11 -6 11 -12
0z"/>
<path d="M12410 20519 c0 -56 66 -262 81 -253 10 6 4 70 -11 108 -4 13 -11 38
-14 57 -15 94 -56 158 -56 88z"/>
<path d="M11104 20489 c-10 -17 13 -36 27 -22 12 12 4 33 -11 33 -5 0 -12 -5
-16 -11z"/>
<path d="M14950 20476 c0 -9 7 -16 16 -16 17 0 14 22 -4 28 -7 2 -12 -3 -12
-12z"/>
<path d="M13308 20398 c-29 -10 -32 -16 -22 -42 9 -24 54 1 54 31 0 12 -1 23
-2 22 -2 0 -15 -5 -30 -11z"/>
<path d="M11033 20388 c-27 -13 -29 -26 -7 -56 16 -24 44 -28 74 -12 19 10 20
18 6 58 -8 24 -36 28 -73 10z"/>
<path d="M12955 20366 c-19 -14 -19 -15 -1 -35 24 -27 42 -27 56 0 9 15 8 24
-1 35 -15 18 -30 18 -54 0z"/>
<path d="M9777 20351 c-3 -12 6 -28 26 -45 l30 -26 13 26 c18 34 19 31 -16 49
-38 20 -47 19 -53 -4z"/>
<path d="M11118 20214 c-3 -3 -4 -14 -1 -25 4 -15 9 -17 19 -8 7 6 10 17 7 25
-5 15 -16 18 -25 8z"/>
<path d="M13526 20143 c-11 -11 -6 -23 9 -23 8 0 15 4 15 9 0 13 -16 22 -24
14z"/>
<path d="M8627 20103 c-14 -13 -6 -60 13 -81 15 -16 25 -19 43 -13 32 12 32
34 -2 69 -29 32 -42 38 -54 25z"/>
<path d="M9848 20032 c-16 -9 -28 -20 -28 -24 0 -4 19 -21 41 -38 41 -29 42
-29 70 -13 28 17 28 18 13 43 -19 29 -43 50 -58 50 -6 0 -23 -8 -38 -18z"/>
<path d="M11075 19890 c3 -5 10 -10 16 -10 5 0 9 5 9 10 0 6 -7 10 -16 10 -8
0 -12 -4 -9 -10z"/>
<path d="M7554 19869 c-3 -6 -1 -16 5 -22 9 -9 14 -8 21 3 9 15 4 30 -10 30
-5 0 -12 -5 -16 -11z"/>
<path d="M10952 19860 c-16 -26 -15 -35 4 -54 24 -24 54 -20 54 7 0 23 -25 67
-38 67 -4 0 -13 -9 -20 -20z"/>
<path d="M14896 19778 c-3 -18 -7 -52 -9 -75 -3 -36 -1 -43 15 -43 13 0 18 8
19 28 0 15 2 36 4 47 11 56 10 70 -7 73 -12 2 -18 -6 -22 -30z"/>
<path d="M11352 19750 c-26 -70 -21 -98 16 -86 28 9 32 37 11 77 l-17 34 -10
-25z"/>
<path d="M10214 19685 c-4 -9 -2 -21 5 -28 13 -13 18 -9 23 17 4 24 -20 33
-28 11z"/>
<path d="M13096 19685 c4 -9 11 -14 16 -13 15 5 11 23 -6 26 -11 2 -14 -2 -10
-13z"/>
<path d="M14859 19543 c0 -10 -2 -27 -4 -38 -4 -21 -11 -72 -21 -142 -4 -29
-2 -43 5 -43 15 0 27 34 34 95 4 28 9 71 13 98 5 39 3 47 -10 47 -9 0 -16 -8
-17 -17z"/>
<path d="M10145 19540 c-8 -14 35 -71 80 -107 27 -22 35 -35 35 -60 0 -18 5
-44 12 -58 l11 -25 29 27 c15 15 28 34 28 42 0 9 -22 39 -48 67 -26 28 -62 68
-80 88 -33 36 -55 45 -67 26z"/>
<path d="M10798 19433 c49 -61 72 -83 87 -83 12 0 12 5 4 27 -14 39 -38 63
-76 79 -47 20 -48 18 -15 -23z"/>
<path d="M18080 19450 c-12 -7 -12 -12 -3 -21 10 -10 14 -9 19 5 8 22 2 27
-16 16z"/>
<path d="M9156 19443 c-13 -13 -5 -41 13 -46 17 -4 31 9 31 28 0 9 -38 24 -44
18z"/>
<path d="M14760 19430 c-13 -8 -13 -12 3 -27 15 -16 19 -16 27 -3 11 17 8 32
-6 37 -5 1 -16 -2 -24 -7z"/>
<path d="M5870 19415 c0 -2 10 -10 23 -16 20 -11 21 -11 8 4 -13 16 -31 23
-31 12z"/>
<path d="M8618 19295 c3 -54 1 -69 -17 -94 -26 -36 -26 -40 0 -34 30 8 89 67
89 90 0 21 -54 103 -69 103 -4 0 -6 -29 -3 -65z"/>
<path d="M8797 19321 c-32 -25 -35 -30 -23 -46 12 -17 15 -17 49 10 29 23 34
32 26 47 -12 23 -10 23 -52 -11z"/>
<path d="M14490 19305 c0 -18 5 -25 20 -25 11 0 20 7 20 15 0 8 -9 19 -20 25
-18 9 -20 8 -20 -15z"/>
<path d="M13523 19304 c-8 -22 15 -44 26 -25 10 16 4 41 -10 41 -5 0 -12 -7
-16 -16z"/>
<path d="M10381 19301 c-18 -11 -18 -11 87 -129 59 -66 77 -80 88 -71 16 13
-8 48 -105 150 -42 44 -60 57 -70 50z"/>
<path d="M10930 19297 c0 -19 69 -97 86 -97 17 0 17 5 3 33 -28 54 -89 98 -89
64z"/>
<path d="M11267 19243 c-7 -15 -2 -36 11 -40 7 -3 12 5 12 21 0 24 -14 36 -23
19z"/>
<path d="M14046 19199 c-34 -27 -33 -42 8 -72 l33 -26 30 32 31 32 -22 21
c-32 32 -52 35 -80 13z"/>
<path d="M10320 19186 c0 -14 47 -70 132 -159 46 -47 67 -41 38 11 -27 46 -53
77 -109 125 -48 40 -61 45 -61 23z"/>
<path d="M8760 19171 c0 -9 5 -34 11 -56 6 -22 15 -59 20 -82 6 -24 14 -43 17
-44 29 -3 78 -12 139 -24 87 -18 83 -18 83 -1 0 9 -8 12 -27 8 -30 -6 -30 -10
12 107 14 40 25 75 23 76 -2 2 -32 6 -68 9 -36 3 -83 9 -105 11 -98 13 -105
13 -105 -4z"/>
<path d="M11060 19157 c0 -8 11 -24 24 -36 21 -20 24 -20 30 -5 4 10 -2 23
-15 35 -26 22 -39 24 -39 6z"/>
<path d="M13044 19116 c-4 -11 -1 -21 7 -27 17 -11 26 18 10 34 -7 7 -12 5
-17 -7z"/>
<path d="M14850 19110 c0 -5 5 -10 10 -10 6 0 10 5 10 10 0 6 -4 10 -10 10 -5
0 -10 -4 -10 -10z"/>
<path d="M8540 18989 c0 -5 7 -9 15 -9 9 0 21 -11 27 -25 6 -14 15 -25 20 -25
17 0 -21 58 -42 63 -11 3 -20 1 -20 -4z"/>
<path d="M19015 18946 c-35 -11 -86 -36 -145 -71 -61 -37 -139 -109 -128 -120
2 -2 50 26 108 61 58 35 119 70 135 79 37 18 94 64 80 64 -5 0 -28 -6 -50 -13z"/>
<path d="M10568 18905 c5 -11 22 -31 37 -45 23 -21 26 -21 17 -5 -5 11 -22 31
-37 45 -23 21 -26 21 -17 5z"/>
<path d="M14821 18884 c0 -11 3 -14 6 -6 3 7 2 16 -1 19 -3 4 -6 -2 -5 -13z"/>
<path d="M8730 18843 c0 -5 11 -20 25 -33 14 -13 25 -19 25 -13 0 5 -11 20
-25 33 -14 13 -25 19 -25 13z"/>
<path d="M11130 18842 c0 -12 19 -26 26 -19 2 2 -2 10 -11 17 -9 8 -15 8 -15
2z"/>
<path d="M17723 18774 c-15 -7 -5 -34 12 -34 11 0 25 20 25 36 0 5 -21 4 -37
-2z"/>
<path d="M8890 18722 c1 -9 50 -69 50 -60 0 16 -24 57 -36 62 -8 3 -14 2 -14
-2z"/>
<path d="M11265 18720 c3 -5 11 -10 16 -10 6 0 7 5 4 10 -3 6 -11 10 -16 10
-6 0 -7 -4 -4 -10z"/>
<path d="M14088 18713 c-8 -17 0 -115 10 -125 17 -17 42 -1 43 29 2 47 -2 77
-13 91 -12 13 -35 16 -40 5z"/>
<path d="M18616 18697 c-14 -10 -16 -16 -7 -22 15 -9 35 8 30 24 -3 8 -10 7
-23 -2z"/>
<path d="M15300 18685 c0 -9 6 -12 15 -9 8 4 12 10 9 15 -8 14 -24 10 -24 -6z"/>
<path d="M9300 18661 c-5 -11 -10 -35 -9 -53 0 -33 8 -47 67 -134 38 -56 39
-63 11 -98 -27 -34 -38 -33 -71 6 -35 41 -45 33 -11 -10 14 -18 52 -45 87 -61
39 -18 68 -40 81 -60 22 -34 52 -54 36 -23 -5 9 -19 26 -30 36 -36 33 -27 70
29 126 77 77 67 124 -42 207 -48 37 -122 83 -133 83 -2 0 -9 -9 -15 -19z"/>
<path d="M15930 18630 c0 -5 5 -10 10 -10 6 0 10 5 10 10 0 6 -4 10 -10 10 -5
0 -10 -4 -10 -10z"/>
<path d="M9204 18622 c-16 -10 -44 -68 -37 -76 16 -16 41 -3 56 30 21 44 12
67 -19 46z"/>
<path d="M15893 18575 c-38 -44 -41 -55 -13 -55 24 0 53 41 48 71 -3 20 -5 19
-35 -16z"/>
<path d="M16245 18601 c-11 -20 0 -61 17 -61 12 0 16 8 16 30 -1 28 -22 48
-33 31z"/>
<path d="M9251 18582 c-16 -30 -14 -52 4 -46 19 8 30 43 17 56 -7 7 -14 3 -21
-10z"/>
<path d="M10731 18580 c8 -12 30 -30 49 -42 34 -20 34 -19 -8 21 -48 45 -62
52 -41 21z"/>
<path d="M17909 18561 c-19 -16 -22 -22 -11 -32 10 -11 16 -10 32 6 29 30 11
52 -21 26z"/>
<path d="M9086 18550 c8 -31 10 -33 23 -29 5 2 1 15 -10 29 l-20 25 7 -25z"/>
<path d="M9640 18526 c0 -2 48 -37 108 -77 59 -39 213 -151 342 -248 334 -250
540 -387 490 -326 -30 36 -412 333 -550 428 -183 125 -219 148 -312 197 -53
28 -78 36 -78 26z"/>
<path d="M14359 18423 c0 -5 -2 -17 -4 -28 -3 -11 -7 -54 -10 -95 -3 -41 -8
-93 -12 -115 -3 -22 -7 -51 -8 -65 -16 -148 -16 -158 -5 -165 28 -17 38 23 46
170 6 123 12 207 20 263 5 34 3 42 -10 42 -9 0 -16 -3 -17 -7z"/>
<path d="M15175 18360 c-10 -19 -26 -49 -36 -67 -29 -51 -31 -117 -5 -156 25
-37 69 -56 94 -41 9 6 29 27 45 46 25 31 29 44 28 97 0 84 -7 104 -34 97 -16
-4 -28 3 -48 27 l-26 31 -18 -34z"/>
<path d="M11657 18304 c-10 -10 -8 -56 3 -74 13 -20 46 0 42 26 -4 24 -36 57
-45 48z"/>
<path d="M11245 18282 c-10 -2 -30 -11 -43 -20 l-23 -15 28 -23 c15 -13 31
-23 35 -24 4 0 44 -27 90 -60 46 -33 88 -60 95 -60 16 0 -12 82 -43 128 -35
54 -93 84 -139 74z"/>
<path d="M9746 18263 c-12 -12 -6 -33 9 -33 8 0 15 6 15 14 0 17 -14 28 -24
19z"/>
<path d="M9610 18245 c-14 -17 -13 -20 15 -29 23 -7 39 2 48 27 5 14 1 17 -22
17 -16 0 -34 -7 -41 -15z"/>
<path d="M14127 18150 c3 -11 9 -17 14 -14 14 8 10 34 -5 34 -9 0 -12 -7 -9
-20z"/>
<path d="M10950 18077 c0 -2 6 -22 14 -43 37 -106 139 -208 321 -321 147 -91
195 -117 202 -110 2 3 -3 23 -13 44 -72 155 -230 308 -404 391 -64 31 -120 49
-120 39z"/>
<path d="M16080 18070 c0 -5 5 -10 11 -10 5 0 7 5 4 10 -3 6 -8 10 -11 10 -2
0 -4 -4 -4 -10z"/>
<path d="M11495 18040 c3 -5 8 -10 11 -10 2 0 4 5 4 10 0 6 -5 10 -11 10 -5 0
-7 -4 -4 -10z"/>
<path d="M10080 18029 c0 -5 0 -12 0 -16 0 -5 14 -9 31 -10 26 -2 29 0 20 11
-14 17 -51 28 -51 15z"/>
<path d="M10160 17997 c0 -8 10 -22 21 -33 l22 -19 -17 33 c-18 34 -26 40 -26
19z"/>
<path d="M10295 17887 c9 -15 23 -27 29 -27 6 0 28 -8 48 -18 25 -13 35 -15
31 -6 -3 7 -20 18 -38 24 -19 6 -46 21 -61 32 l-27 22 18 -27z"/>
<path d="M9514 17889 c-4 -7 1 -18 11 -26 27 -19 37 -16 25 6 -14 27 -27 34
-36 20z"/>
<path d="M9570 17836 c0 -2 7 -9 15 -16 9 -7 15 -8 15 -2 0 5 -7 12 -15 16 -8
3 -15 4 -15 2z"/>
<path d="M15113 17825 c-51 -22 -59 -74 -20 -132 25 -38 53 -42 90 -13 42 33
55 111 25 147 -13 17 -55 16 -95 -2z"/>
<path d="M10737 17823 c-8 -13 -2 -48 9 -47 5 0 11 8 12 18 4 20 -13 43 -21
29z"/>
<path d="M9620 17796 c18 -22 70 -46 101 -46 11 0 30 -11 40 -24 21 -27 89
-70 89 -56 0 5 -18 19 -39 31 -22 12 -41 29 -44 39 -3 11 -19 19 -48 24 -24 4
-59 17 -79 29 -30 18 -33 19 -20 3z"/>
<path d="M10421 17786 c6 -13 33 -34 61 -47 27 -13 54 -32 60 -42 5 -10 12
-16 15 -13 9 9 -26 56 -41 56 -8 0 -35 16 -60 35 -40 31 -44 32 -35 11z"/>
<path d="M10154 17723 c10 -11 36 -12 36 -2 0 5 -10 9 -22 9 -12 0 -18 -3 -14
-7z"/>
<path d="M10243 17678 c25 -29 69 -66 97 -81 67 -36 56 -18 -13 22 -28 16 -63
47 -77 68 -14 21 -32 39 -39 41 -7 1 7 -21 32 -50z"/>
<path d="M10855 17664 c-19 -20 -33 -39 -30 -44 5 -8 104 17 118 30 13 11 -15
50 -36 50 -9 0 -33 -16 -52 -36z"/>
<path d="M10569 17653 c7 -14 25 -25 49 -29 20 -4 43 -11 50 -17 9 -7 11 -6 7
6 -4 8 -23 18 -43 22 -20 4 -46 14 -56 23 -18 16 -18 16 -7 -5z"/>
<path d="M9933 17607 c4 -13 67 -40 67 -29 0 4 -16 15 -36 24 -21 10 -34 12
-31 5z"/>
<path d="M14340 17595 c0 -14 0 -28 0 -32 0 -5 6 -8 12 -8 11 0 13 16 9 55 -2
22 -21 8 -21 -15z"/>
<path d="M10730 17602 c0 -6 -12 -18 -27 -25 l-26 -14 24 -16 c13 -9 37 -18
53 -21 17 -3 39 -16 50 -30 12 -13 37 -27 56 -30 25 -4 31 -3 20 4 -8 5 -25
10 -37 10 -13 0 -23 5 -23 10 0 19 -40 50 -65 50 -30 0 -43 24 -25 45 7 9 10
18 6 22 -3 3 -6 1 -6 -5z"/>
<path d="M11130 17565 c-7 -25 -10 -48 -7 -51 4 -5 107 53 107 61 0 14 -36 35
-59 35 -25 0 -30 -5 -41 -45z"/>
<path d="M16530 17568 c-19 -31 -19 -34 -3 -45 22 -17 25 -16 45 11 26 36 27
61 1 64 -16 2 -28 -6 -43 -30z"/>
<path d="M14732 17524 c-30 -21 -28 -40 6 -52 25 -8 47 -4 70 13 1 1 -2 14 -7
29 -12 30 -36 33 -69 10z"/>
<path d="M10258 17399 c17 -5 32 -14 32 -19 0 -18 32 -40 58 -39 27 1 27 1 -4
11 -18 6 -37 21 -43 34 -8 19 -18 24 -43 23 l-33 -1 33 -9z"/>
<path d="M15814 17352 c-19 -13 -44 -56 -44 -77 0 -18 9 -23 58 -33 31 -7 69
-15 84 -18 26 -6 27 -5 19 24 -26 88 -75 133 -117 104z"/>
<path d="M10407 17294 c11 -16 29 -37 39 -46 33 -29 124 -69 149 -66 20 2 8
14 -73 65 -54 34 -107 65 -117 69 -18 7 -18 6 2 -22z"/>
<path d="M10803 17272 c-48 -25 -51 -29 -40 -49 l12 -22 53 24 c52 24 57 30
46 59 -8 20 -9 20 -71 -12z"/>
<path d="M16719 17229 c-14 -27 1 -44 30 -34 23 7 27 25 9 43 -17 17 -26 15
-39 -9z"/>
<path d="M10630 17172 c0 -15 41 -52 80 -72 21 -11 41 -24 45 -30 3 -5 11 -10
17 -10 20 0 -13 28 -68 60 -30 16 -54 37 -54 45 0 8 -4 15 -10 15 -5 0 -10 -4
-10 -8z"/>
<path d="M11006 17034 c-26 -38 -25 -59 3 -74 19 -10 76 13 84 34 5 14 -39 76
-53 76 -5 0 -20 -16 -34 -36z"/>
<path d="M11145 16879 c-10 -15 3 -25 16 -12 7 7 7 13 1 17 -6 3 -14 1 -17 -5z"/>
<path d="M17643 16644 c-45 -95 -50 -156 -14 -185 13 -10 33 -19 45 -19 21 0
21 3 21 140 0 77 -3 140 -8 140 -4 0 -24 -34 -44 -76z"/>
<path d="M18092 16711 c-19 -12 -5 -60 16 -57 11 2 18 14 20 34 3 33 -9 41
-36 23z"/>
<path d="M17830 16460 c0 -5 6 -10 14 -10 8 0 18 5 21 10 3 6 -3 10 -14 10
-12 0 -21 -4 -21 -10z"/>
<path d="M6171 16251 c-17 -11 -8 -39 14 -47 21 -9 47 26 33 43 -12 15 -27 16
-47 4z"/>
<path d="M13890 15437 c0 -8 7 -18 16 -21 11 -4 14 -1 12 11 -4 21 -28 30 -28
10z"/>
<path d="M13990 15382 c0 -6 33 -31 43 -32 19 -1 4 28 -18 32 -14 3 -25 3 -25
0z"/>
<path d="M13684 15348 c-22 -11 -40 -21 -42 -23 -1 -1 4 -15 13 -31 8 -16 15
-32 15 -35 0 -4 7 -23 15 -42 14 -35 15 -35 52 -25 73 20 96 89 49 145 -30 35
-53 38 -102 11z"/>
<path d="M8797 15318 c-9 -6 -8 -8 3 -9 8 -1 18 -1 23 0 4 1 26 2 48 3 22 1
42 4 44 7 5 9 -104 8 -118 -1z"/>
<path d="M12620 15131 c-37 -10 -37 -39 2 -72 42 -38 78 -53 91 -40 13 13 10
90 -4 107 -12 15 -47 17 -89 5z"/>
<path d="M13049 15048 l-32 -32 31 -13 c38 -15 56 -10 70 22 9 18 7 26 -7 39
-23 21 -24 21 -62 -16z"/>
<path d="M7612 14999 l-43 -19 16 -28 c29 -49 76 -73 149 -77 36 -2 68 0 71 5
7 12 -39 85 -72 116 -31 29 -63 29 -121 3z"/>
<path d="M13740 15010 c0 -5 5 -10 11 -10 5 0 7 5 4 10 -3 6 -8 10 -11 10 -2
0 -4 -4 -4 -10z"/>
<path d="M13425 14900 c3 -5 8 -10 11 -10 2 0 4 5 4 10 0 6 -5 10 -11 10 -5 0
-7 -4 -4 -10z"/>
<path d="M13257 14820 c-14 -11 -30 -20 -36 -20 -15 0 -14 -35 2 -47 15 -13
106 -23 112 -13 9 14 -16 80 -34 90 -14 7 -25 5 -44 -10z"/>
<path d="M13589 14786 c-46 -14 -69 -33 -69 -57 0 -21 48 -119 59 -119 5 0 59
137 69 178 4 14 -10 14 -59 -2z"/>
<path d="M13840 14755 c-19 -23 -8 -25 14 -4 11 11 15 19 9 19 -6 0 -16 -7
-23 -15z"/>
<path d="M13790 14710 c0 -5 5 -10 10 -10 6 0 10 5 10 10 0 6 -4 10 -10 10 -5
0 -10 -4 -10 -10z"/>
<path d="M12800 14681 c-19 -36 -13 -61 15 -61 31 0 42 23 27 56 -14 29 -28
31 -42 5z"/>
<path d="M19370 14636 c0 -14 -1 -29 -2 -33 -1 -5 5 -9 14 -11 11 -2 15 5 14
29 -1 39 -26 53 -26 15z"/>
<path d="M19559 14634 c-29 -78 -32 -218 -5 -259 10 -15 20 -24 24 -20 9 9 9
305 -1 305 -4 0 -12 -12 -18 -26z"/>
<path d="M19190 14485 c0 -16 27 -32 37 -22 5 6 -21 37 -31 37 -3 0 -6 -7 -6
-15z"/>
<path d="M8824 14465 c-18 -15 -18 -16 5 -35 30 -26 38 -25 44 5 6 34 -22 51
-49 30z"/>
<path d="M13375 14404 c-27 -36 -43 -82 -44 -127 -1 -30 6 -45 28 -68 28 -27
34 -29 87 -24 70 6 101 25 112 68 10 37 -2 112 -20 130 -33 32 -66 47 -103 47
-32 0 -44 -6 -60 -26z"/>
<path d="M19709 14346 c16 -19 55 -22 49 -3 -3 6 -17 14 -33 15 -25 3 -27 2
-16 -12z"/>
<path d="M13797 14263 c-11 -10 -8 -20 8 -27 10 -4 15 1 15 14 0 20 -11 26
-23 13z"/>
<path d="M13684 14064 l-35 -37 36 -24 c42 -29 61 -27 87 8 17 22 18 29 7 47
-7 11 -23 25 -36 31 -21 9 -28 6 -59 -25z"/>
<path d="M14020 13990 c0 -5 5 -10 10 -10 6 0 10 5 10 10 0 6 -4 10 -10 10 -5
0 -10 -4 -10 -10z"/>
<path d="M13490 13905 c0 -8 5 -15 10 -15 6 0 10 7 10 15 0 8 -4 15 -10 15 -5
0 -10 -7 -10 -15z"/>
<path d="M13492 13829 c-22 -93 -13 -140 47 -260 48 -92 81 -122 94 -81 3 9
26 54 51 100 39 72 43 84 28 88 -72 22 -79 30 -81 85 -1 64 -20 95 -63 104
-18 4 -40 8 -49 11 -12 3 -18 -8 -27 -47z"/>
<path d="M14078 13850 c-5 -35 -2 -40 28 -40 29 0 41 40 17 58 -27 19 -40 14
-45 -18z"/>
<path d="M14282 13869 c2 -7 10 -15 17 -17 8 -3 12 1 9 9 -2 7 -10 15 -17 17
-8 3 -12 -1 -9 -9z"/>
<path d="M7507 13783 c-14 -13 -6 -24 15 -21 27 4 36 28 11 28 -11 0 -23 -3
-26 -7z"/>
<path d="M14278 13669 c-14 -9 11 -99 28 -99 33 0 39 11 36 60 -4 46 -6 49
-28 48 -14 -2 -30 -5 -36 -9z"/>
<path d="M13870 13581 c0 -25 6 -27 13 -6 4 8 2 17 -3 20 -6 4 -10 -3 -10 -14z"/>
<path d="M13746 13576 c7 -19 48 -22 42 -3 -3 6 -14 13 -26 15 -16 3 -20 -1
-16 -12z"/>
<path d="M10620 13574 c0 -3 15 -28 33 -55 l32 -50 3 37 c4 40 -19 74 -50 74
-10 0 -18 -3 -18 -6z"/>
<path d="M10578 13513 c7 -3 16 -2 19 1 4 3 -2 6 -13 5 -11 0 -14 -3 -6 -6z"/>
<path d="M13988 13513 c7 -3 16 -2 19 1 4 3 -2 6 -13 5 -11 0 -14 -3 -6 -6z"/>
<path d="M13807 13345 c-32 -19 -63 -35 -68 -35 -20 0 3 -19 58 -49 31 -17 59
-27 62 -22 37 57 64 73 87 52 14 -14 83 -51 95 -51 6 0 33 21 60 47 l49 46
-35 24 c-42 29 -102 30 -153 4 -37 -19 -38 -19 -61 0 -13 10 -26 19 -30 19 -3
0 -32 -16 -64 -35z"/>
<path d="M14065 13230 c-3 -5 3 -10 15 -10 12 0 18 5 15 10 -3 6 -10 10 -15
10 -5 0 -12 -4 -15 -10z"/>
<path d="M14250 13171 c0 -5 7 -12 16 -15 22 -9 24 -8 24 9 0 8 -9 15 -20 15
-11 0 -20 -4 -20 -9z"/>
<path d="M10475 13140 c-3 -5 1 -10 10 -10 9 0 13 5 10 10 -3 6 -8 10 -10 10
-2 0 -7 -4 -10 -10z"/>
<path d="M14156 13101 c-7 -10 22 -71 34 -71 10 0 20 49 13 67 -6 15 -39 18
-47 4z"/>
<path d="M14277 13053 c-4 -3 -7 -17 -7 -30 0 -16 6 -23 19 -23 18 0 19 3 10
30 -12 33 -12 33 -22 23z"/>
<path d="M13550 13035 c-7 -8 -8 -15 -2 -15 5 0 15 7 22 15 7 8 8 15 2 15 -5
0 -15 -7 -22 -15z"/>
<path d="M13946 12999 c-30 -24 -33 -56 -10 -102 21 -40 31 -46 62 -41 50 9
81 39 76 72 -1 6 -2 21 -3 32 -3 54 -76 77 -125 39z"/>
<path d="M8425 12970 c3 -5 8 -10 11 -10 2 0 4 5 4 10 0 6 -5 10 -11 10 -5 0
-7 -4 -4 -10z"/>
<path d="M10164 12905 c-9 -21 -6 -23 47 -30 43 -6 46 -5 44 17 -1 19 -8 23
-43 26 -31 2 -44 -1 -48 -13z"/>
<path d="M14371 12822 c-8 -15 -7 -23 4 -32 21 -18 47 -4 43 22 -4 29 -34 35
-47 10z"/>
<path d="M13947 12603 c-3 -5 -8 -33 -12 -63 -4 -30 -8 -62 -10 -70 -2 -8 -10
-58 -19 -110 -21 -126 -33 -161 -67 -201 -35 -41 -37 -60 -6 -53 12 3 39 5 59
5 31 0 36 3 33 21 -2 11 -8 25 -13 32 -5 6 -12 20 -16 31 -5 17 4 24 55 45
l60 25 -6 67 c-4 37 -8 77 -9 90 -5 40 -20 143 -22 151 -1 4 -2 14 -3 22 -1
16 -17 20 -24 8z"/>
<path d="M14052 12549 c2 -6 8 -10 13 -10 5 0 11 4 13 10 2 6 -4 11 -13 11 -9
0 -15 -5 -13 -11z"/>
<path d="M9668 12539 c-21 -11 -12 -53 9 -45 8 4 26 9 39 12 13 3 24 10 24 14
0 14 -55 28 -72 19z"/>
<path d="M8936 12505 c-4 -10 1 -15 14 -15 11 0 20 7 20 15 0 8 -6 15 -14 15
-8 0 -16 -7 -20 -15z"/>
<path d="M14590 12456 c0 -8 4 -17 9 -20 10 -7 23 19 14 28 -11 11 -23 6 -23
-8z"/>
<path d="M14524 12402 c-7 -5 -6 -22 3 -54 12 -41 18 -48 39 -48 24 0 25 2 18
48 -3 26 -8 50 -11 55 -5 9 -35 9 -49 -1z"/>
<path d="M7982 12353 c2 -10 10 -18 18 -18 22 0 18 29 -3 33 -14 3 -18 -1 -15
-15z"/>
<path d="M14300 12352 c-33 -16 -34 -19 -31 -67 1 -27 4 -52 6 -53 5 -5 67 16
122 40 36 16 42 22 33 37 -24 46 -85 66 -130 43z"/>
<path d="M9222 12296 l-53 -33 25 -29 c13 -16 37 -37 53 -46 26 -15 31 -15 61
-1 35 17 72 57 72 78 0 20 -59 65 -83 64 -12 0 -46 -15 -75 -33z"/>
<path d="M8290 12285 c0 -8 7 -15 15 -15 9 0 12 6 9 15 -4 8 -10 15 -15 15 -5
0 -9 -7 -9 -15z"/>
<path d="M9865 12261 c3 -5 -7 -19 -22 -31 -30 -23 -70 -23 -65 0 2 10 -5 7
-21 -8 -13 -12 -34 -25 -47 -27 -13 -3 -28 -9 -34 -15 -7 -7 -7 -11 -1 -10 24
5 65 -1 65 -9 0 -4 -16 -28 -35 -52 -34 -43 -45 -66 -25 -54 22 14 74 101 72
122 -1 13 3 23 8 23 6 0 10 -8 10 -17 0 -16 12 -18 88 -21 111 -4 132 2 132
32 0 20 -6 24 -41 30 -29 5 -43 12 -46 26 -3 11 -14 20 -25 20 -10 0 -17 -4
-13 -9z"/>
<path d="M8444 12159 c-35 -18 -104 -90 -104 -108 0 -4 6 -8 13 -8 6 0 46 -4
88 -8 l75 -7 1 66 c1 82 -14 95 -73 65z"/>
<path d="M9621 12156 c-9 -10 -9 -16 -1 -21 6 -4 12 -5 13 -4 2 2 9 12 16 22
11 14 11 17 -2 17 -8 0 -20 -6 -26 -14z"/>
<path d="M14560 12149 c0 -5 5 -7 10 -4 6 3 10 8 10 11 0 2 -4 4 -10 4 -5 0
-10 -5 -10 -11z"/>
<path d="M9312 12049 c-45 -44 -34 -47 13 -4 22 19 34 35 29 35 -6 0 -25 -14
-42 -31z"/>
<path d="M10032 12053 c-23 -15 -42 -33 -42 -40 0 -6 12 -21 27 -33 39 -30 82
-24 105 17 l19 31 -28 26 c-15 14 -30 26 -33 26 -3 0 -25 -12 -48 -27z"/>
<path d="M9447 12006 c-19 -15 -26 -28 -21 -39 8 -22 14 -21 46 6 23 18 25 25
15 38 -11 15 -15 15 -40 -5z"/>
<path d="M14169 12000 c-12 -8 43 -98 134 -218 l40 -53 43 73 c24 40 44 77 44
81 0 14 -40 44 -106 82 -60 35 -130 50 -155 35z"/>
<path d="M13076 11965 c4 -8 8 -15 10 -15 2 0 4 7 4 15 0 8 -4 15 -10 15 -5 0
-7 -7 -4 -15z"/>
<path d="M9698 11945 c-10 -22 -40 -38 -72 -40 -5 0 -11 -6 -13 -12 -6 -16 54
3 80 26 25 21 41 51 27 51 -6 0 -16 -11 -22 -25z"/>
<path d="M14055 11934 c-11 -9 -29 -22 -39 -29 -32 -24 -4 -45 60 -45 l55 0
-15 28 c-30 56 -39 63 -61 46z"/>
<path d="M9512 11810 c-7 -11 -8 -20 -3 -20 9 0 24 30 18 36 -1 2 -8 -6 -15
-16z"/>
<path d="M13546 11782 c-7 -11 5 -27 33 -42 26 -13 41 -2 41 33 0 13 -8 17
-34 17 -19 0 -37 -4 -40 -8z"/>
<path d="M9468 11773 c-26 -7 -22 -20 6 -20 17 0 23 4 19 13 -3 8 -6 13 -7 13
0 -1 -9 -3 -18 -6z"/>
<path d="M9682 11746 c-8 -18 -6 -25 10 -35 17 -10 23 -10 35 1 17 18 8 44
-17 51 -12 3 -21 -3 -28 -17z"/>
<path d="M8866 11579 c-65 -24 -77 -36 -70 -68 27 -116 115 -199 227 -214 57
-7 145 43 176 100 15 29 -6 74 -58 122 -77 71 -184 95 -275 60z"/>
<path d="M13842 11540 c-9 -14 -8 -19 4 -24 24 -9 31 -7 38 9 3 8 -2 19 -12
24 -14 7 -21 5 -30 -9z"/>
<path d="M10173 11434 c-23 -47 -9 -69 41 -68 19 1 34 -2 31 -5 -2 -4 -7 -33
-10 -64 -5 -45 -3 -63 9 -82 21 -32 40 -32 71 0 44 43 31 86 -44 147 -15 13
-19 25 -15 46 4 20 0 34 -11 45 -27 28 -54 21 -72 -19z"/>
<path d="M10461 11431 c-10 -7 -10 -10 -1 -16 6 -4 16 -3 22 3 13 13 -4 23
-21 13z"/>
<path d="M13778 11418 c-33 -11 -68 -79 -68 -130 0 -47 39 -94 88 -107 80 -21
110 -22 115 -3 3 9 13 48 23 85 l17 68 -23 16 c-13 9 -32 25 -43 36 -30 30
-78 46 -109 35z"/>
<path d="M13531 11369 c-36 -34 -33 -43 17 -53 27 -5 38 -1 59 20 24 24 24 26
7 45 -24 26 -43 24 -83 -12z"/>
<path d="M15294 11373 c11 -11 48 -14 41 -3 -3 5 -16 10 -27 10 -12 0 -18 -3
-14 -7z"/>
<path d="M15353 11335 c0 -8 4 -12 9 -9 5 3 6 10 3 15 -9 13 -12 11 -12 -6z"/>
<path d="M13585 11200 c-4 -6 -3 -16 3 -22 6 -6 12 -6 17 2 4 6 3 16 -3 22 -6
6 -12 6 -17 -2z"/>
<path d="M15854 11178 c-7 -11 29 -48 47 -48 15 0 10 26 -9 43 -22 20 -28 21
-38 5z"/>
<path d="M15704 11066 c1 -17 7 -21 39 -22 25 0 41 4 44 13 7 19 4 21 -43 26
-37 4 -41 3 -40 -17z"/>
<path d="M10193 11018 c-41 -9 -41 -9 -31 -38 14 -42 23 -44 57 -13 42 40 31
62 -26 51z"/>
<path d="M16013 10987 c-9 -15 36 -49 61 -45 32 5 32 34 -1 43 -47 13 -53 14
-60 2z"/>
<path d="M15830 10980 c0 -5 5 -10 10 -10 6 0 10 5 10 10 0 6 -4 10 -10 10 -5
0 -10 -4 -10 -10z"/>
<path d="M10910 10918 c-1 -23 -31 -234 -45 -308 -3 -14 -7 -45 -10 -70 -3
-25 -8 -54 -10 -65 -2 -11 -4 -36 -4 -56 -1 -33 -4 -37 -33 -43 -18 -3 -60
-12 -93 -20 -76 -16 -109 -8 -193 50 -63 43 -99 57 -177 70 -46 7 -62 17 -70
47 -3 12 -16 52 -27 89 -19 60 -23 65 -42 58 -24 -8 -24 -31 -1 -145 18 -84
18 -86 -24 -167 -31 -62 -32 -67 -18 -99 8 -19 45 -70 83 -114 38 -44 84 -98
101 -121 l32 -41 -53 -37 c-29 -20 -55 -36 -59 -36 -3 0 -29 46 -57 103 -74
149 -83 154 -77 42 11 -195 51 -259 160 -254 68 3 217 41 217 55 0 24 -27 58
-55 70 -40 16 -71 57 -59 76 14 22 13 37 -7 93 -27 78 -23 86 21 37 37 -41 41
-43 77 -36 74 15 70 21 62 -84 -1 -18 2 -37 7 -42 6 -6 47 -12 93 -15 88 -4
119 -17 147 -59 12 -20 16 -60 18 -193 4 -207 15 -301 60 -536 13 -67 14 -190
2 -257 -3 -19 -22 -136 -40 -260 -19 -124 -42 -256 -50 -295 -8 -38 -17 -83
-20 -100 -3 -16 -10 -52 -15 -80 -10 -52 -8 -200 3 -246 10 -43 99 -311 161
-484 70 -195 271 -776 366 -1055 38 -113 101 -308 139 -435 38 -126 91 -293
118 -370 81 -229 126 -365 222 -665 50 -157 102 -316 115 -355 13 -38 71 -218
130 -400 59 -181 116 -356 127 -389 11 -32 21 -63 23 -70 1 -6 5 -18 8 -26 6
-17 174 -537 207 -645 12 -38 62 -194 111 -345 48 -151 113 -356 144 -455 96
-304 106 -333 158 -413 57 -88 130 -119 343 -147 107 -13 273 -45 328 -62 17
-5 18 -1 13 26 -9 46 -119 316 -198 489 -16 35 -29 65 -29 67 0 2 -13 32 -29
67 -37 81 -123 284 -196 463 -86 211 -141 312 -188 346 -22 16 -45 29 -51 29
-6 0 -33 11 -61 24 -100 47 -171 141 -194 256 -22 110 -22 121 -18 690 2 259
0 271 -132 702 -23 75 -44 147 -46 160 -11 55 -58 233 -65 247 -5 9 -18 41
-29 72 -19 53 -105 253 -172 398 -71 151 -168 441 -149 441 13 0 110 -198 185
-375 91 -218 222 -517 256 -589 16 -33 29 -63 29 -67 0 -4 18 -45 39 -91 70
-149 111 -245 111 -258 0 -20 24 -5 40 26 8 17 14 56 14 94 -1 54 -9 86 -52
190 -66 165 -292 746 -292 754 0 14 -154 403 -188 477 -53 111 -200 460 -202
479 -4 28 0 41 11 35 8 -6 249 -489 249 -500 0 -2 41 -87 90 -189 50 -103 90
-189 90 -191 0 -6 41 -95 121 -263 33 -68 59 -125 59 -127 0 -13 96 -206 120
-240 23 -33 35 -42 50 -38 11 3 20 8 20 12 -1 14 -19 90 -35 146 -28 102 -28
102 3 73 28 -26 57 -40 65 -32 3 3 1 19 -4 36 -5 17 -11 50 -14 72 -4 23 -13
68 -22 101 -8 33 -17 69 -19 79 -2 10 -9 35 -16 55 -16 49 -12 120 12 188 11
32 20 66 20 76 0 30 -36 91 -87 147 -84 92 -92 102 -193 235 -101 133 -146
208 -180 298 -20 53 -15 75 14 64 14 -6 105 -117 331 -407 103 -133 101 -131
127 -121 20 7 23 16 25 77 5 139 5 390 0 414 -12 59 -20 88 -33 130 -8 25 -16
82 -17 125 -3 71 -7 86 -38 135 -26 43 -422 538 -507 635 -26 29 -108 137
-170 223 -55 78 -92 168 -92 227 0 34 0 35 21 17 11 -9 183 -233 381 -497 435
-578 459 -608 469 -598 8 9 196 512 237 636 22 66 27 76 39 64 22 -22 25 -70
9 -118 -17 -49 -56 -207 -56 -226 0 -10 180 -76 187 -69 1 1 4 32 8 69 6 76 0
102 -72 312 -50 148 -57 212 -25 254 11 14 27 25 36 25 9 -1 16 6 16 15 -1 12
-230 331 -304 422 -8 9 -44 59 -82 110 -38 52 -74 101 -81 109 -6 8 -47 62
-90 120 -78 105 -99 132 -118 154 -6 6 -55 70 -109 141 -54 72 -105 140 -114
152 -10 12 -42 56 -72 98 -48 67 -127 174 -190 255 -26 35 -215 289 -237 319
-10 14 -34 45 -54 70 -19 25 -91 123 -159 216 -230 317 -379 510 -449 585 -39
41 -70 78 -71 83 0 13 -40 8 -40 -5z m105 -1614 c19 -9 38 -27 43 -42 8 -23 6
-181 -2 -189 -1 -2 -21 12 -44 29 l-42 32 0 93 c0 51 3 93 6 93 3 0 21 -7 39
-16z m1323 -295 c8 -12 10 -24 7 -27 -7 -7 -45 34 -45 49 0 14 25 0 38 -22z
m-1294 -42 c31 -40 31 -43 9 -51 -20 -8 -63 37 -63 66 0 29 27 21 54 -15z
m122 -126 c20 -36 29 -63 24 -71 -13 -20 -36 3 -65 64 -18 37 -21 52 -12 58
19 12 20 11 53 -51z m1132 -133 c7 -7 12 -19 12 -27 0 -11 -4 -10 -20 4 -21
19 -26 35 -12 35 4 0 13 -5 20 -12z m-964 -163 c12 -17 18 -18 34 -8 16 9 24
9 38 -2 19 -13 19 -14 0 -21 -17 -6 -18 -15 -12 -76 5 -61 4 -68 -11 -68 -17
1 -31 18 -106 134 -17 26 -30 63 -34 96 l-6 53 41 -44 c23 -24 48 -53 56 -64z
m307 -5 c54 -69 54 -68 -1 -66 -55 3 -78 17 -95 61 -11 26 -12 45 -6 105 1 16
39 -20 102 -100z m95 -443 c55 -60 105 -123 146 -187 169 -262 216 -332 257
-380 62 -71 171 -229 171 -247 0 -17 -10 -17 -77 7 -31 11 -59 17 -62 14 -8
-8 41 -91 82 -139 22 -25 91 -91 155 -147 64 -57 130 -118 147 -137 16 -19 35
-40 41 -46 17 -17 44 -72 38 -78 -3 -3 -30 -3 -61 -1 -42 4 -68 13 -102 37
-167 115 -273 257 -325 441 -15 48 -28 98 -30 110 -25 136 -121 313 -240 442
-83 90 -219 328 -199 348 12 11 20 6 59 -37z m-686 -494 c0 -26 -30 -11 -49
25 -19 36 -2 48 25 17 13 -16 24 -34 24 -42z m55 -375 c47 -39 77 -73 126
-142 37 -54 109 -178 109 -190 0 -18 -110 53 -156 100 -71 74 -163 264 -128
264 5 0 27 -15 49 -32z m258 -42 c15 -14 28 -29 28 -33 1 -4 2 -23 4 -41 2
-27 0 -30 -12 -20 -17 14 -103 133 -103 142 0 11 53 -20 83 -48z m419 -224
c35 -73 44 -100 36 -110 -14 -17 -17 -13 -66 95 -45 98 -49 113 -29 112 6 0
33 -44 59 -97z m289 -44 c2 -24 2 -66 0 -83 -1 -11 -101 85 -101 97 0 4 23 8
50 8 45 0 50 -2 51 -22z m-383 -164 c24 -47 30 -70 23 -77 -8 -8 -15 -7 -25 3
-23 25 -56 93 -56 117 0 42 26 23 58 -43z m227 -342 l39 -18 -54 -31 c-30 -18
-56 -30 -59 -28 -8 9 11 95 22 95 7 0 30 -9 52 -18z m445 -315 c0 2 12 -3 28
-11 22 -11 39 -42 86 -151 32 -75 55 -139 52 -142 -14 -14 -106 68 -174 154
-33 42 -85 147 -76 156 2 2 22 1 44 -3 22 -4 40 -6 40 -3z"/>
<path d="M15682 10824 c2 -11 11 -20 22 -22 13 -3 17 1 14 14 -2 11 -11 20
-22 22 -13 3 -17 -1 -14 -14z"/>
<path d="M14627 10716 c-10 -26 21 -92 49 -105 43 -19 71 -14 81 17 12 33 -1
77 -25 87 -9 4 -35 10 -58 12 -32 4 -43 1 -47 -11z"/>
<path d="M10543 10698 c-81 -18 -46 -66 68 -93 l26 -6 -10 55 c-11 61 -11 61
-84 44z"/>
<path d="M15743 10562 c-18 -12 -43 -70 -43 -99 0 -15 14 -64 31 -107 20 -51
29 -92 27 -113 -5 -40 -2 -40 101 -7 l79 25 -4 62 c-8 100 -5 130 14 156 25
34 40 37 35 8 -4 -19 4 -31 33 -56 21 -17 43 -30 49 -28 5 2 17 23 26 47 9 24
21 46 28 48 6 2 11 11 11 20 -1 13 -6 10 -21 -10 -28 -37 -65 -37 -98 1 -27
30 -34 32 -181 47 -30 3 -60 7 -66 9 -6 2 -15 0 -21 -3z"/>
<path d="M15126 10495 c-5 -15 50 -65 71 -65 10 0 27 30 21 35 -2 1 -17 11
-35 23 -37 26 -49 27 -57 7z"/>
<path d="M15527 10408 c-26 -83 -28 -93 -28 -151 -1 -66 35 -144 64 -139 11 2
17 -3 18 -15 0 -10 2 -25 4 -33 20 -85 20 -83 -6 -70 -13 8 -48 29 -78 49 -51
34 -54 35 -67 16 -14 -19 -18 -41 -15 -80 2 -20 45 -65 115 -120 53 -41 53
-41 67 0 15 41 21 35 43 -51 l16 -62 -77 -73 c-164 -158 -189 -190 -208 -274
-11 -47 -12 -179 -2 -236 3 -15 19 -58 36 -97 28 -64 35 -91 44 -184 2 -15 17
-43 35 -62 61 -67 90 -142 107 -276 4 -30 9 -66 11 -80 3 -26 42 -120 49 -120
2 0 30 32 61 71 31 39 58 68 60 66 6 -6 17 -68 30 -172 3 -27 8 -57 9 -65 2
-9 7 -43 11 -75 4 -33 9 -62 9 -65 1 -3 5 -36 10 -75 13 -111 17 -116 48 -51
26 54 39 64 64 48 15 -10 26 -78 39 -257 5 -81 22 -127 42 -123 15 3 17 18 14
118 -2 129 2 140 62 165 29 12 37 13 41 3 4 -13 53 -175 94 -315 20 -67 35
-84 52 -59 4 5 3 21 -1 37 -11 37 -23 146 -21 182 4 65 42 107 128 143 33 13
57 29 55 36 -2 7 -16 48 -32 91 -17 43 -30 80 -30 83 0 2 32 21 70 42 l71 39
-63 122 c-54 106 -62 130 -64 184 l-2 61 -88 73 c-111 92 -158 109 -256 92
-21 -3 -38 -4 -38 -2 0 3 7 29 16 59 18 62 20 63 112 35 34 -11 62 -16 62 -11
0 4 -7 24 -15 43 -21 51 -19 98 11 212 15 58 24 119 23 148 -3 48 -1 51 34 74
20 13 37 26 37 29 0 12 -24 48 -45 68 -22 21 -49 65 -43 70 2 2 31 22 66 46
62 42 68 51 35 56 -40 6 -72 18 -196 74 -73 32 -174 70 -226 85 -115 32 -137
43 -184 91 -58 60 -76 109 -73 195 2 41 11 96 20 123 24 69 28 185 8 226 -15
31 -92 90 -117 90 -6 0 -18 -24 -28 -52z"/>
<path d="M16100 10158 c1 -17 35 -58 49 -58 22 0 19 19 -6 44 -28 28 -43 33
-43 14z"/>
<path d="M16464 10038 c10 -72 35 -133 66 -163 l30 -28 -5 62 c-4 60 -24 107
-63 154 -25 28 -34 20 -28 -25z"/>
<path d="M15950 10011 c0 -5 5 -13 10 -16 6 -3 10 -2 10 4 0 5 -4 13 -10 16
-5 3 -10 2 -10 -4z"/>
<path d="M14199 9937 c-76 -52 -134 -219 -144 -414 -7 -138 -12 -199 -20 -269
-6 -48 -5 -54 27 -90 18 -22 35 -41 39 -44 3 -3 17 -22 33 -42 32 -43 65 -56
124 -51 89 7 131 52 182 193 44 122 32 182 -53 257 -18 16 -68 71 -111 123
l-78 94 29 26 c121 103 115 96 109 135 -8 48 -21 72 -49 87 -36 20 -53 19 -88
-5z m-4 -699 c22 -29 48 -62 58 -73 40 -44 40 -52 -6 -79 -24 -13 -49 -26 -56
-28 -13 -3 -55 119 -66 195 -9 56 22 49 70 -15z"/>
<path d="M16100 9946 c0 -17 32 -76 41 -76 4 0 12 7 19 15 11 13 8 21 -15 45
-32 33 -45 38 -45 16z"/>
<path d="M16559 9830 c-2 -19 0 -38 7 -68 3 -17 11 -22 27 -20 33 5 30 18 -20
86 -10 14 -13 15 -14 2z"/>
<path d="M9572 9798 c-25 -33 -40 -76 -36 -113 5 -62 42 -78 125 -55 57 16 55
39 -7 114 -57 69 -65 74 -82 54z"/>
<path d="M18115 9723 c-36 -9 -46 -25 -43 -66 4 -49 22 -58 37 -20 6 15 18 43
26 61 8 17 12 31 8 31 -5 -1 -17 -4 -28 -6z"/>
<path d="M16808 9679 c-25 -14 -22 -42 8 -72 30 -30 38 -28 59 14 9 16 16 30
18 32 1 2 -4 11 -12 20 -15 19 -47 22 -73 6z"/>
<path d="M17043 9669 c-28 -10 -28 -9 2 -69 17 -34 32 -50 45 -50 30 0 31 13
2 72 -24 51 -29 55 -49 47z"/>
<path d="M16620 9525 c0 -8 4 -15 8 -15 5 0 9 7 9 15 0 8 -4 15 -9 15 -4 0 -8
-7 -8 -15z"/>
<path d="M17105 9496 c-18 -13 -17 -15 14 -64 24 -38 36 -49 51 -45 24 7 25 1
-4 68 -27 59 -32 63 -61 41z"/>
<path d="M15210 9339 c-9 -67 -9 -83 2 -90 20 -13 28 -11 29 9 0 9 4 44 8 77
9 66 6 85 -14 85 -8 0 -17 -28 -25 -81z"/>
<path d="M13580 9338 c0 -16 4 -28 9 -28 18 0 20 17 6 36 -14 18 -14 18 -15
-8z"/>
<path d="M9341 9204 c-43 -55 -49 -145 -11 -179 20 -18 21 -16 35 80 19 129
14 148 -24 99z"/>
<path d="M16840 9203 c0 -15 120 -250 133 -261 9 -8 13 2 15 44 3 61 -13 103
-56 150 -33 36 -92 79 -92 67z"/>
<path d="M13539 9183 c-5 -41 -2 -146 3 -150 5 -2 8 -3 8 -1 0 2 9 34 20 73
15 53 17 71 7 77 -15 10 -37 10 -38 1z"/>
<path d="M14008 9029 c3 -18 -3 -64 -13 -103 -13 -52 -15 -80 -8 -105 9 -35 9
-35 29 -15 10 11 26 30 34 42 l15 23 69 -47 c61 -41 70 -44 83 -31 17 16 22
10 -121 161 -26 26 -54 61 -63 77 -22 38 -31 37 -25 -2z"/>
<path d="M14947 9009 c-9 -34 9 -62 33 -49 14 8 17 16 11 37 -9 35 -36 42 -44
12z"/>
<path d="M13530 8991 c0 -12 0 -23 0 -26 0 -3 3 -6 7 -7 10 -5 13 41 3 47 -6
3 -10 -3 -10 -14z"/>
<path d="M16464 8962 c-8 -20 -19 -45 -25 -56 -61 -108 -56 -246 12 -309 28
-27 106 -53 149 -52 117 5 141 31 146 157 5 137 -34 216 -129 262 -29 15 -72
28 -96 31 -41 4 -43 3 -57 -33z"/>
<path d="M14881 8857 c-9 -11 -8 -17 4 -27 12 -10 16 -9 21 5 9 23 -10 40 -25
22z"/>
<path d="M13570 8812 c0 -4 -11 -19 -25 -34 -44 -48 -8 -82 49 -45 40 25 42
29 20 62 -15 23 -44 35 -44 17z"/>
<path d="M14266 8759 c-3 -8 -16 -47 -30 -86 -34 -98 -37 -135 -15 -173 21
-35 30 -36 69 -14 27 17 30 16 105 -21 76 -37 77 -37 96 -18 19 19 18 21 -83
154 -128 168 -136 176 -142 158z"/>
<path d="M14360 8752 c0 -10 98 -134 113 -144 6 -4 15 -4 19 -2 11 7 10 72 -2
95 -19 34 -130 78 -130 51z"/>
<path d="M13905 8694 c-5 -2 -41 -7 -80 -11 -69 -8 -69 -8 -77 -43 -21 -95 -7
-161 50 -228 25 -28 32 -32 62 -26 56 10 153 61 175 91 30 41 25 99 -14 167
-30 52 -35 56 -69 55 -20 0 -41 -2 -47 -5z"/>
<path d="M10132 8618 c-155 -24 -326 -156 -358 -277 -30 -118 29 -402 101
-489 8 -9 48 -60 88 -112 l74 -95 77 2 c169 4 305 57 434 168 32 27 70 93 77
133 3 18 1 50 -5 72 -6 21 -11 85 -13 142 -2 101 -3 105 -50 201 -26 54 -63
115 -82 136 -66 73 -243 134 -343 119z m327 -544 c25 -32 26 -43 5 -51 -10 -3
-26 4 -42 20 -21 22 -23 28 -12 41 17 22 25 20 49 -10z"/>
<path d="M14832 8552 c-44 -61 -34 -108 10 -49 33 43 40 64 23 71 -8 3 -22 -6
-33 -22z"/>
<path d="M13478 8477 c-32 -30 -43 -77 -28 -122 18 -54 91 -85 140 -60 30 16
95 119 85 135 -4 7 -28 25 -53 41 -58 37 -109 39 -144 6z"/>
<path d="M17879 8458 c0 -13 -2 -32 -5 -43 -13 -67 76 -124 119 -77 15 17 14
21 -21 64 -71 85 -91 97 -93 56z"/>
<path d="M15017 8367 c-17 -21 -17 -23 4 -39 16 -13 26 -15 40 -8 24 13 24 21
0 48 -23 27 -22 27 -44 -1z"/>
<path d="M17481 8320 c-17 -27 -31 -54 -31 -59 0 -19 96 -46 146 -43 24 2 84
56 84 75 0 11 -36 28 -151 72 -12 5 -25 -7 -48 -45z"/>
<path d="M14467 8334 c-40 -22 -50 -55 -32 -107 26 -74 18 -82 -47 -47 l-37
19 35 -72 c20 -39 38 -79 41 -89 4 -13 14 -15 46 -11 99 10 157 69 157 157 0
59 -22 101 -73 140 -39 30 -51 31 -90 10z"/>
<path d="M15259 8113 c-19 -48 -39 -117 -39 -134 0 -10 11 -19 28 -23 119 -29
167 -24 195 23 9 16 17 32 17 35 0 5 -86 65 -152 105 l-38 23 -11 -29z"/>
<path d="M17682 8082 c-19 -26 -19 -29 -4 -55 19 -32 28 -31 56 6 16 22 18 31
8 52 -15 33 -36 32 -60 -3z"/>
<path d="M14057 8066 c-9 -22 19 -41 38 -26 8 7 15 19 15 26 0 19 -46 18 -53
0z"/>
<path d="M18050 7990 l-54 -5 44 -42 c89 -83 95 -86 136 -71 20 7 39 19 41 26
6 15 -14 67 -31 81 -16 13 -68 17 -136 11z"/>
<path d="M14340 7961 c0 -48 13 -80 31 -78 16 1 19 9 19 49 0 45 -2 48 -25 48
-18 0 -25 -5 -25 -19z"/>
<path d="M10699 7843 c-28 -7 -25 -130 6 -233 40 -130 105 -333 115 -355 12
-28 427 -1277 483 -1455 25 -80 75 -242 111 -360 139 -463 196 -604 333 -832
58 -97 90 -141 78 -106 -2 7 -25 83 -50 168 -80 268 -351 1108 -416 1288 -11
29 -23 70 -28 90 -5 20 -41 129 -80 242 -39 113 -174 510 -298 883 -125 372
-229 676 -232 676 -3 -1 -13 -3 -22 -6z"/>
<path d="M13856 7635 c-25 -20 -46 -40 -46 -44 0 -11 67 -57 102 -70 84 -32
136 53 73 119 -38 40 -71 38 -129 -5z"/>
<path d="M10643 7569 c-8 -8 -1 -32 25 -90 21 -43 40 -78 44 -79 3 0 -2 30
-12 68 -34 124 -34 124 -57 101z"/>
<path d="M16082 7464 c-28 -20 -30 -74 -3 -98 11 -10 36 -20 57 -23 l37 -5 -7
36 c-10 53 -35 106 -49 106 -7 0 -23 -7 -35 -16z"/>
<path d="M16240 7431 c0 -12 0 -24 0 -28 1 -12 69 -33 85 -27 36 14 2 55 -57
69 -24 6 -28 4 -28 -14z"/>
<path d="M14388 7385 c-47 -26 -95 -160 -82 -233 30 -182 131 -361 248 -442
51 -34 139 -62 192 -59 89 5 192 78 236 167 35 70 32 187 -5 260 -72 139 -204
212 -359 198 l-63 -5 -29 54 c-15 29 -35 57 -44 60 -33 14 -67 13 -94 0z"/>
<path d="M17613 7373 c-18 -7 -16 -27 5 -46 17 -16 19 -16 31 7 20 36 2 55
-36 39z"/>
<path d="M10727 7334 c-8 -8 3 -34 14 -34 11 0 12 27 0 34 -4 3 -11 3 -14 0z"/>
<path d="M10591 7255 c-22 -26 -31 -46 -31 -71 0 -30 51 -199 80 -269 5 -11
23 -60 40 -110 80 -227 134 -366 170 -440 41 -83 75 -134 84 -124 3 2 -13 77
-35 164 -22 88 -44 178 -49 200 -7 36 -33 121 -139 470 -17 55 -31 112 -31
128 0 15 -4 27 -9 27 -5 0 -14 14 -20 30 -13 39 -22 38 -60 -5z"/>
<path d="M17496 7255 c-27 -7 -88 -11 -135 -10 -110 3 -154 -16 -182 -80 -35
-79 -44 -253 -19 -356 6 -24 12 -50 13 -57 6 -23 66 -101 93 -119 22 -14 44
-17 117 -15 l89 3 -6 -28 c-7 -35 4 -55 24 -43 11 7 12 13 2 35 -18 39 -15 88
7 112 11 11 40 25 64 32 25 6 48 15 51 20 4 5 -3 54 -14 109 -27 137 -14 210
40 227 24 8 25 18 4 36 -9 7 -26 36 -39 64 -33 75 -49 86 -109 70z m-11 -247
c44 -52 62 -106 56 -170 -1 -15 -5 -15 -33 -6 -18 6 -46 19 -62 29 -28 17 -29
19 -28 101 0 46 1 87 1 91 2 13 38 -11 66 -45z"/>
<path d="M10790 7130 c0 -11 6 -20 14 -20 9 0 12 7 9 20 -3 11 -9 20 -14 20
-5 0 -9 -9 -9 -20z"/>
<path d="M16785 7074 c-20 -6 -43 -20 -51 -31 -42 -54 -59 -213 -29 -276 8
-18 43 -62 75 -98 33 -35 68 -76 77 -91 10 -16 25 -28 34 -28 25 0 84 50 117
100 52 78 66 159 43 246 -34 126 -165 213 -266 178z"/>
<path d="M17996 7043 c-11 -14 -38 -54 -61 -89 -46 -71 -43 -71 -123 -2 -44
38 -72 36 -99 -6 l-22 -34 56 -74 56 -75 60 18 c47 14 69 28 104 66 42 47 56
78 67 155 6 37 0 68 -13 68 -3 0 -15 -12 -25 -27z"/>
<path d="M10536 6949 c-45 -109 -65 -348 -39 -472 13 -66 45 -163 117 -362 20
-55 47 -136 61 -180 147 -496 256 -815 297 -873 27 -38 29 -47 19 -69 -12 -27
-9 -39 8 -29 6 4 7 14 4 24 -14 36 27 -10 74 -84 25 -41 49 -74 53 -74 3 0 16
9 27 20 19 17 20 24 11 52 -5 18 -14 49 -18 68 -18 77 -42 161 -165 565 -66
215 -138 460 -155 520 -4 17 -27 93 -50 170 -68 226 -160 542 -189 647 -14 53
-30 100 -34 104 -4 4 -13 -8 -21 -27z"/>
<path d="M16415 6880 c-3 -5 -1 -36 4 -67 5 -32 12 -74 15 -93 3 -19 17 -102
31 -185 14 -82 26 -165 27 -182 1 -29 4 -33 31 -33 28 0 29 1 23 38 -6 38 -21
127 -30 172 -5 22 -36 197 -52 285 -8 49 -14 63 -29 69 -8 3 -17 1 -20 -4z"/>
<path d="M13595 6828 c-13 -20 -13 -23 0 -31 19 -10 55 0 55 16 0 7 -9 18 -20
24 -16 11 -21 9 -35 -9z"/>
<path d="M13506 6564 c-31 -30 -12 -114 25 -114 16 0 84 37 97 53 10 12 4 20
-34 46 -54 35 -66 37 -88 15z"/>
<path d="M10990 6529 c0 -5 5 -7 10 -4 6 3 10 8 10 11 0 2 -4 4 -10 4 -5 0
-10 -5 -10 -11z"/>
<path d="M15857 6523 c-12 -3 -16 -12 -13 -31 3 -15 8 -51 11 -81 l7 -53 29
28 c43 44 46 76 12 112 -16 17 -35 27 -46 25z"/>
<path d="M13761 6423 c-36 -44 -37 -49 -13 -62 22 -12 59 4 78 34 12 18 11 24
-2 43 -21 30 -28 28 -63 -15z"/>
<path d="M11012 6439 c2 -6 8 -10 13 -10 5 0 11 4 13 10 2 6 -4 11 -13 11 -9
0 -15 -5 -13 -11z"/>
<path d="M10409 6313 c-1 -32 -2 -71 -4 -88 -2 -16 -6 -88 -10 -159 -6 -112
-5 -128 8 -123 11 4 18 -5 25 -34 6 -23 6 -41 1 -45 -15 -9 -10 -27 5 -21 10
4 16 -6 22 -31 8 -41 8 -40 -1 -64 -4 -10 -3 -18 3 -18 6 0 22 -11 35 -24 25
-25 111 -56 154 -56 19 0 23 4 19 18 -16 50 -151 521 -174 605 -25 93 -27 97
-54 97 -27 0 -28 -1 -29 -57z"/>
<path d="M11050 6358 c1 -16 32 -102 49 -133 27 -51 27 -27 0 27 -11 22 -22
54 -23 71 -1 17 -8 33 -14 35 -7 2 -12 2 -12 0z"/>
<path d="M10939 6187 c-4 -55 -1 -70 14 -64 9 3 20 -12 32 -46 11 -29 20 -56
21 -62 3 -18 33 -85 38 -85 7 0 -14 70 -51 165 -37 95 -52 120 -54 92z"/>
<path d="M11126 6119 c16 -67 52 -180 53 -164 2 19 -54 225 -61 225 -3 0 0
-27 8 -61z"/>
<path d="M14384 6138 c-17 -18 -49 -56 -73 -85 l-42 -52 34 -73 c43 -91 75
-123 155 -160 78 -36 133 -38 192 -8 75 37 75 31 4 152 -35 61 -64 113 -64
117 0 14 -94 113 -121 126 -40 21 -51 19 -85 -17z"/>
<path d="M11183 5905 c6 -19 14 -35 18 -35 4 0 2 16 -4 35 -6 19 -14 35 -18
35 -4 0 -2 -16 4 -35z"/>
<path d="M18017 5844 c-4 -4 -7 -14 -7 -23 0 -11 3 -12 11 -4 6 6 10 16 7 23
-2 6 -7 8 -11 4z"/>
<path d="M11217 5773 c8 -38 26 -108 40 -158 14 -49 26 -97 28 -105 2 -8 20
-64 40 -125 20 -60 47 -146 59 -190 13 -44 49 -163 81 -265 31 -102 79 -259
106 -350 28 -91 68 -221 89 -290 21 -69 82 -269 135 -445 126 -417 153 -507
235 -765 38 -118 87 -273 109 -345 106 -345 133 -424 160 -480 49 -100 40 -47
-34 200 -13 44 -58 197 -100 340 -68 230 -161 535 -185 605 -5 14 -25 81 -44
150 -48 167 -70 239 -101 336 -14 44 -27 89 -30 100 -2 10 -38 127 -80 259
-84 266 -147 466 -177 565 -11 36 -22 72 -25 80 -3 8 -7 20 -8 25 -2 6 -19 64
-40 130 -20 66 -44 145 -52 175 -8 30 -29 105 -48 165 -18 61 -43 144 -55 185
-41 141 -93 270 -109 270 -5 0 -2 -30 6 -67z"/>
<path d="M10344 5764 c3 -9 6 -20 6 -25 0 -5 7 -9 15 -9 12 0 13 4 3 25 -12
27 -34 35 -24 9z"/>
<path d="M11110 5700 c0 -5 5 -10 10 -10 6 0 10 5 10 10 0 6 -4 10 -10 10 -5
0 -10 -4 -10 -10z"/>
<path d="M10487 5666 c-4 -10 -5 -21 -2 -24 9 -9 17 6 13 25 -3 17 -4 17 -11
-1z"/>
<path d="M10386 5641 c-8 -12 3 -61 13 -61 9 0 7 57 -1 65 -3 4 -9 2 -12 -4z"/>
<path d="M18297 5637 c-3 -7 -1 -20 4 -28 6 -11 11 -11 21 -1 10 10 9 15 -4
28 -13 13 -16 13 -21 1z"/>
<path d="M10396 5555 c4 -8 8 -15 10 -15 2 0 4 7 4 15 0 8 -4 15 -10 15 -5 0
-7 -7 -4 -15z"/>
<path d="M10410 5520 c0 -5 5 -10 10 -10 6 0 10 5 10 10 0 6 -4 10 -10 10 -5
0 -10 -4 -10 -10z"/>
<path d="M18245 5490 c-7 -11 5 -40 16 -40 5 0 9 2 9 4 0 2 3 11 6 19 6 16
-22 32 -31 17z"/>
<path d="M10441 5421 c-12 -8 -12 -12 -2 -24 6 -8 23 -37 36 -64 24 -47 24
-47 19 -13 -7 47 -26 110 -33 110 -3 0 -12 -4 -20 -9z"/>
<path d="M15642 5343 c-9 -18 -8 -23 10 -72 l9 -24 29 28 c34 33 37 47 14 69
-21 21 -51 20 -62 -1z"/>
<path d="M17966 5263 c-11 -11 -6 -23 9 -23 8 0 15 4 15 9 0 13 -16 22 -24 14z"/>
<path d="M10511 5208 c-1 -16 4 -28 9 -28 12 0 12 8 0 35 -8 18 -9 17 -9 -7z"/>
<path d="M13610 5160 c-12 -26 -19 -53 -16 -59 14 -23 43 -10 64 28 28 49 27
55 -2 69 -22 10 -25 7 -46 -38z"/>
<path d="M18389 5110 c-6 -82 -5 -91 9 -85 7 3 22 5 31 5 16 0 17 5 8 49 -7
39 -13 49 -28 48 -11 -1 -19 -8 -20 -17z"/>
<path d="M18180 5090 c-11 -7 -11 -14 1 -46 14 -38 42 -64 55 -51 9 8 -15 84
-30 97 -7 5 -18 5 -26 0z"/>
<path d="M10143 4803 c5 -27 102 -297 113 -314 6 -11 34 0 34 14 0 6 -26 82
-57 169 -47 128 -61 158 -76 158 -16 0 -18 -5 -14 -27z"/>
<path d="M18115 4739 c-39 -39 -40 -41 -20 -56 11 -8 36 -22 55 -30 33 -15 35
-14 56 12 18 23 20 33 12 56 -8 22 -45 59 -61 59 -1 0 -21 -18 -42 -41z"/>
<path d="M10116 4692 c-11 -34 -10 -91 3 -106 7 -8 25 -19 41 -25 l29 -10 -26
72 c-30 84 -39 96 -47 69z"/>
<path d="M11840 4443 c0 -23 88 -298 116 -360 24 -56 39 -72 23 -25 -132 395
-139 415 -139 385z"/>
<path d="M11990 4005 c0 -8 9 -37 20 -65 13 -32 18 -65 16 -88 -3 -22 0 -39 7
-44 21 -14 29 -8 23 15 -4 12 -9 31 -11 42 -9 40 -47 155 -51 155 -2 0 -4 -7
-4 -15z"/>
<path d="M12055 3763 c-5 -21 -1 -31 19 -50 14 -13 26 -34 27 -46 0 -12 3 -16
6 -10 6 15 -24 120 -36 127 -5 3 -12 -6 -16 -21z"/>
<path d="M12125 3529 c-4 -6 -5 -13 -2 -16 7 -7 27 6 27 18 0 12 -17 12 -25
-2z"/>
<path d="M12157 3435 c-4 -8 -2 -17 3 -20 6 -4 10 -4 10 -1 0 2 3 11 6 20 3 9
2 16 -4 16 -5 0 -12 -7 -15 -15z"/>
<path d="M12192 3323 c2 -9 8 -18 15 -20 7 -3 9 3 6 16 -6 25 -26 28 -21 4z"/>
<path d="M12217 3264 c-10 -10 -9 -42 2 -49 14 -8 19 6 12 33 -3 13 -9 20 -14
16z"/>
<path d="M12255 3130 c3 -5 8 -10 11 -10 2 0 4 5 4 10 0 6 -5 10 -11 10 -5 0
-7 -4 -4 -10z"/>
<path d="M13100 2943 c0 -19 41 -137 210 -603 57 -159 102 -286 171 -490 65
-188 86 -231 121 -246 36 -15 78 -6 78 16 0 11 -21 77 -46 147 -102 284 -200
570 -271 788 -41 127 -82 247 -91 268 -18 44 -55 78 -123 113 -44 22 -49 23
-49 7z"/>
<path d="M13470 2881 c0 -11 22 -84 49 -163 42 -123 188 -544 204 -588 3 -8
19 -53 36 -100 97 -278 116 -327 131 -343 21 -23 110 -33 110 -13 0 8 -16 58
-35 112 -20 54 -52 145 -72 203 -19 58 -42 123 -51 144 -13 33 -13 40 -1 49
12 8 12 9 -1 5 -11 -3 -22 17 -42 72 -15 42 -23 78 -17 79 5 2 9 8 9 13 0 6
-5 7 -10 4 -12 -7 -44 61 -35 75 3 4 0 10 -6 12 -7 2 -13 21 -14 42 -1 21 -7
41 -13 45 -6 4 -18 31 -26 61 -30 110 -39 136 -61 180 -28 55 -68 94 -117 115
-36 15 -38 14 -38 -4z"/>
<path d="M14010 2540 c-9 -36 -3 -60 17 -69 13 -6 23 -7 23 -3 -1 10 -39 78
-40 72z"/>
<path d="M12340 2165 c0 -5 9 -23 20 -40 11 -16 20 -25 20 -20 0 6 -9 24 -20
40 -11 17 -20 26 -20 20z"/>
<path d="M14470 2163 c0 -19 106 -272 114 -273 10 0 1 99 -12 146 -14 46 -42
96 -66 116 -22 19 -36 23 -36 11z"/>
<path d="M14261 2100 c0 -14 8 -62 17 -108 14 -64 21 -79 30 -70 20 20 13 80
-17 143 -22 45 -30 54 -30 35z"/>
<path d="M12379 2064 c0 -5 -2 -19 -5 -31 -2 -12 2 -23 11 -27 12 -4 14 1 10
26 -6 32 -14 50 -16 32z"/>
<path d="M12410 1909 c0 -11 5 -17 10 -14 6 3 10 13 10 21 0 8 -4 14 -10 14
-5 0 -10 -9 -10 -21z"/>
<path d="M14260 1875 c0 -8 4 -15 10 -15 5 0 7 7 4 15 -4 8 -8 15 -10 15 -2 0
-4 -7 -4 -15z"/>
</g>
</svg>
